<svg xmlns="http://www.w3.org/2000/svg" xmlns:xlink="http://www.w3.org/1999/xlink"><defs><symbol viewBox="0 0 477.175 477.175" id="back"><path d="M145.188 238.575l215.5-215.5c5.3-5.3 5.3-13.8 0-19.1s-13.8-5.3-19.1 0l-225.1 225.1c-5.3 5.3-5.3 13.8 0 19.1l225.1 225c2.6 2.6 6.1 4 9.5 4s6.9-1.3 9.5-4c5.3-5.3 5.3-13.8 0-19.1l-215.4-215.5z" fill="#FFF" /></symbol><symbol viewBox="0 0 45.437 45.437" id="bus"><path d="M41.403 11.11c-.371-3.627-.962-6.451-1.897-7.561-3.855-4.564-30.859-4.898-33.925 0-.75 1.2-1.276 4.014-1.629 7.567a2.287 2.287 0 00-2.026 2.267v4.443a2.29 2.29 0 001.5 2.146c-.207 6.998-.039 14.299.271 17.93 0 2.803 1.883 2.338 1.883 2.338h1.765v3.026c0 1.2 1.237 2.171 2.761 2.171 1.526 0 2.763-.971 2.763-2.171V40.24h20.534v3.026c0 1.2 1.236 2.171 2.762 2.171 1.524 0 2.761-.971 2.761-2.171V40.24h.58s2.216.304 2.358-1.016c0-3.621.228-11.646.04-19.221a2.28 2.28 0 001.607-2.177v-4.443a2.284 2.284 0 00-2.108-2.273zM12.176 4.2h20.735v3.137H12.176V4.2zm.296 32.467a2.947 2.947 0 110-5.895 2.947 2.947 0 010 5.895zm20.328 0a2.948 2.948 0 11-.002-5.892 2.948 2.948 0 01.002 5.892zm3.747-12.9H8.54V9.077h28.007v14.69z" /></symbol><symbol viewBox="0 0 273.4 222.2" id="twitter"><path d="M273.4 26.3c-10.1 4.5-20.9 7.5-32.2 8.8 11.6-6.9 20.5-17.9 24.7-31-10.9 6.4-22.9 11.1-35.7 13.6A55.919 55.919 0 00189.3 0c-31 0-56.1 25.1-56.1 56.1 0 4.4.5 8.7 1.5 12.8C88 66.5 46.7 44.2 19 10.3c-4.8 8.3-7.6 17.9-7.6 28.2 0 19.5 9.9 36.6 25 46.7-9.2-.3-17.8-2.8-25.4-7v.7c0 27.2 19.3 49.8 45 55-4.7 1.3-9.7 2-14.8 2-3.6 0-7.1-.4-10.6-1 7.1 22.3 27.9 38.5 52.4 39-19.2 15-43.4 24-69.7 24-4.5 0-9-.3-13.4-.8 24.8 15.9 54.3 25.2 86 25.2 103.2 0 159.6-85.5 159.6-159.6 0-2.4-.1-4.9-.2-7.3 11.1-8 20.6-17.9 28.1-29.1z" /></symbol></defs></svg>