<svg xmlns="http://www.w3.org/2000/svg" xmlns:xlink="http://www.w3.org/1999/xlink"><defs><symbol viewBox="0 0 1920 954" id="FamilyClubNew"><style>#FamilyClubNew .st0{fill:none;stroke:#000;stroke-width:2;stroke-miterlimit:10}#FamilyClubNew .st1{fill:#f0cd4f}#FamilyClubNew .st2{fill:#fff}</style><path id="FamilyClubNew__x38_" class="st0" d="M1039.5 700.5h327v226.1H1264v12.9h-47V926h-153.5v-40.5h-23.1l-.9-185z" /><path id="FamilyClubNew__x37_" class="st0" d="M1038.5 484h272v62.5h40v35h16.5V698h-328c-.2-70.7-.3-143.3-.5-214z" /><path id="FamilyClubNew__x31_" class="st0" d="M596.7 704h301.7v96h-3.8v84.7h-19.2v41.4h-154v14h-47.3v-13.4h-79c.5-74.3 1-148.5 1.6-222.7z" /><path id="FamilyClubNew__x32_" class="st0" d="M596.7 569h8.3v-84.7h293.3v217.3H596c.2-44.2.4-88.4.7-132.6z" /><path id="FamilyClubNew__x33_" class="st0" d="M717.7 61.3V348H530c-8-2.3-16-4.7-24-7 1.3-80.2 2.7-160.4 4-240.7h19v-28h53.6c12.4-7.4 24.9-14.9 37.3-22.3 8.4 4.2 16.9 8.4 25.3 12.7 24.2-.5 48.4-.9 72.5-1.4z" /><path id="FamilyClubNew__x34_" class="st0" d="M826.3 61.7c7.4 3.8 14.9 7.6 22.3 11.3h56v275H719.9V61c35.5.2 71 .4 106.4.7z" /><path id="FamilyClubNew__x35_" class="st0" d="M907.3 61.7h115.3c4.7 3.9 9.3 7.8 14 11.7h63.7c0 91.3 1 183.7 1 275-64.3 0-129.7-1-194-1V61.7z" /><path id="FamilyClubNew__x36_" class="st0" d="M1103.3 62.3h115.3c5 3.7 10 7.3 15 11h61l.3 17.7h15.3c.6 85.9 1.1 171.8 1.7 257.7h-207.7c-.2-95.5-.5-190.9-.9-286.4z" /><circle class="st1" cx="867" cy="122" r="17.5" /><circle class="st1" cx="682" cy="122" r="17.5" /><circle class="st1" cx="862" cy="528" r="17.5" /><circle class="st1" cx="1273" cy="528" r="17.5" /><circle class="st1" cx="862" cy="743" r="17.5" /><circle class="st1" cx="1323" cy="743" r="17.5" /><circle class="st1" cx="1068" cy="122" r="17.5" /><circle class="st1" cx="1269" cy="122" r="17.5" /><path class="st2" d="M679.5 119h1.8c.9 0 1.5-.2 1.9-.6s.6-1 .6-1.7-.2-1.2-.6-1.6-1-.6-1.7-.6c-.6 0-1.2.2-1.6.5s-.7.8-.7 1.4h-3.4c0-.9.2-1.7.7-2.4s1.2-1.3 2-1.7 1.8-.6 2.9-.6c1.8 0 3.2.4 4.2 1.3s1.5 2.1 1.5 3.6c0 .8-.2 1.5-.7 2.2s-1.1 1.2-1.9 1.5c1 .3 1.7.9 2.2 1.5s.7 1.5.7 2.4c0 1.5-.6 2.7-1.7 3.6s-2.6 1.4-4.4 1.4c-1.7 0-3.1-.4-4.2-1.3s-1.6-2.1-1.6-3.6h3.4c0 .6.2 1.2.7 1.6s1.1.6 1.8.6c.8 0 1.4-.2 1.9-.6s.7-1 .7-1.7c0-1.7-.9-2.6-2.8-2.6h-1.8V119h.1zM871.1 122.6h1.9v2.7h-1.9v3.7h-3.4v-3.7h-7l-.2-2.1 7.1-11.2h3.4v10.6h.1zm-7.2 0h3.8v-6l-.2.4-3.6 5.6zM1062.8 120.6l1-8.7h9.6v2.8h-6.8l-.4 3.7c.8-.4 1.7-.6 2.6-.6 1.6 0 2.9.5 3.8 1.5s1.4 2.4 1.4 4.2c0 1.1-.2 2.1-.7 3s-1.1 1.5-2 2-1.9.7-3.1.7c-1 0-2-.2-2.9-.6s-1.6-1-2.1-1.8-.8-1.6-.8-2.6h3.4c.1.7.3 1.3.7 1.7s1 .6 1.7.6c.8 0 1.4-.3 1.8-.8s.6-1.3.6-2.3-.2-1.7-.7-2.2-1.2-.8-2-.8-1.5.2-2 .6l-.3.3-2.8-.7zM1272.5 111.8v2.8h-.3c-1.5 0-2.8.4-3.7 1.2s-1.5 1.8-1.7 3.2c.9-.9 2.1-1.4 3.4-1.4 1.5 0 2.7.5 3.5 1.6s1.3 2.5 1.3 4.2c0 1.1-.2 2.1-.7 3s-1.2 1.6-2 2.1-1.9.8-3 .8c-1.8 0-3.2-.6-4.4-1.9s-1.7-2.9-1.7-5v-1.2c0-1.9.3-3.5 1-4.9s1.7-2.5 3-3.3 2.8-1.2 4.6-1.2h.7zm-3.3 8.5c-.5 0-1 .1-1.5.4-.4.3-.8.7-1 1.1v1c0 1.1.2 2 .7 2.6.4.6 1.1 1 1.9 1 .7 0 1.3-.3 1.8-.9.4-.6.7-1.3.7-2.2 0-.9-.2-1.7-.7-2.2-.6-.5-1.2-.8-1.9-.8zM864.5 750h-3.4v-13l-4 1.3v-2.8l7.1-2.5h.4v17h-.1zM868 535h-11.7v-2.3l5.5-5.9c.8-.8 1.3-1.6 1.7-2.2s.5-1.2.5-1.8c0-.8-.2-1.4-.6-1.8s-.9-.7-1.6-.7c-.8 0-1.4.3-1.8.8s-.7 1.2-.7 2.1h-3.4c0-1 .2-2 .7-2.8s1.2-1.5 2.1-2 1.9-.7 3.1-.7c1.8 0 3.1.4 4.1 1.3s1.5 2 1.5 3.6c0 .8-.2 1.7-.7 2.6s-1.2 1.9-2.3 3.1l-3.9 4.1h7.3v2.6h.2zM1278.9 519.8l-6.6 15.2h-3.6l6.6-14.3h-8.5V518h12v1.8h.1zM1328.4 737.5c0 .8-.2 1.6-.6 2.2s-1 1.2-1.7 1.5c.8.4 1.5.9 2 1.6s.7 1.5.7 2.5c0 1.5-.5 2.7-1.5 3.6s-2.4 1.3-4.2 1.3-3.2-.4-4.2-1.3-1.6-2.1-1.6-3.6c0-.9.2-1.8.7-2.5s1.1-1.3 2-1.6c-.7-.4-1.3-.9-1.7-1.5s-.6-1.4-.6-2.2c0-1.5.5-2.6 1.5-3.5s2.3-1.3 3.9-1.3c1.7 0 3 .4 3.9 1.3s1.4 2 1.4 3.5zm-3 7.6c0-.7-.2-1.3-.6-1.8s-1-.7-1.7-.7-1.3.2-1.7.7-.6 1-.6 1.8c0 .7.2 1.3.6 1.8s1 .7 1.8.7c.7 0 1.3-.2 1.7-.6s.5-1.1.5-1.9zm-.4-7.4c0-.7-.2-1.2-.5-1.6s-.8-.6-1.5-.6c-.6 0-1.1.2-1.5.6s-.5.9-.5 1.6c0 .7.2 1.2.5 1.6s.8.6 1.5.6 1.1-.2 1.5-.6.5-1 .5-1.6z" /></symbol><symbol viewBox="0 0 477.175 477.175" id="back"><path d="M145.188 238.575l215.5-215.5c5.3-5.3 5.3-13.8 0-19.1s-13.8-5.3-19.1 0l-225.1 225.1c-5.3 5.3-5.3 13.8 0 19.1l225.1 225c2.6 2.6 6.1 4 9.5 4s6.9-1.3 9.5-4c5.3-5.3 5.3-13.8 0-19.1l-215.4-215.5z" fill="#FFF" /></symbol><symbol viewBox="0 0 45.437 45.437" id="bus"><path d="M41.403 11.11c-.371-3.627-.962-6.451-1.897-7.561-3.855-4.564-30.859-4.898-33.925 0-.75 1.2-1.276 4.014-1.629 7.567a2.287 2.287 0 00-2.026 2.267v4.443a2.29 2.29 0 001.5 2.146c-.207 6.998-.039 14.299.271 17.93 0 2.803 1.883 2.338 1.883 2.338h1.765v3.026c0 1.2 1.237 2.171 2.761 2.171 1.526 0 2.763-.971 2.763-2.171V40.24h20.534v3.026c0 1.2 1.236 2.171 2.762 2.171 1.524 0 2.761-.971 2.761-2.171V40.24h.58s2.216.304 2.358-1.016c0-3.621.228-11.646.04-19.221a2.28 2.28 0 001.607-2.177v-4.443a2.284 2.284 0 00-2.108-2.273zM12.176 4.2h20.735v3.137H12.176V4.2zm.296 32.467a2.947 2.947 0 110-5.895 2.947 2.947 0 010 5.895zm20.328 0a2.948 2.948 0 11-.002-5.892 2.948 2.948 0 01.002 5.892zm3.747-12.9H8.54V9.077h28.007v14.69z" /></symbol><symbol viewBox="0 0 66.2 65.1" id="business-house"><style>#business-house .st0{fill:none;stroke:#ff9f10;stroke-width:4;stroke-linecap:round;stroke-linejoin:round;stroke-miterlimit:10}</style><path class="st0" d="M15.5 38.4h5.9v10.2h-5.9zM45.5 38.4h5.9v10.2h-5.9z" /><path class="st0" d="M60.6 28.9H12c-.8 0-1.4-.9-1-1.6l5.8-11.8h16.3c.8 0 1.6-.8 1.6-1.6 0-1-.8-3.6-1.6-3.6H13.7c-1.4 0-2.1.3-2.4 1L3.4 28.4c-.6 1.3-.3 2.8.8 3.7.1.1.2.2.3.2.6.5 1.4.8 2.2.8h2.4v26.4c0 1 .8 1.6 1.6 1.6h45.1c.8 0 1.6-.6 1.6-1.6V33.1h3.4c.8 0 1.6-.8 1.6-1.6-.2-.9-1-2.6-1.8-2.6zm-21 32.2h-5.8v-9.7c0-1 .2-1.6-.6-1.6s-.6.6-.6 1.6v9.7h-5.8v-11c0-3.5 2.9-6.4 6.4-6.4s6.4 2.9 6.4 6.4v11z" /><path class="st0" d="M50.8 24.1c-5.9 0-10.9-4.8-10.9-10.9S44.8 2.4 50.8 2.4s10.9 4.8 10.9 10.9-4.8 10.8-10.9 10.8z" /><path d="M49.6 18.4c-.5 0-.8-.2-1.1-.5l-3-3c-.6-.6-.6-1.5 0-2.1.6-.6 1.5-.6 2.1 0l2 2 4.4-4.4c.6-.6 1.5-.6 2.1 0 .6.6.6 1.5 0 2.1L50.7 18c-.3.3-.6.4-1.1.4z" fill="none" stroke="#ff9f10" stroke-width="2" stroke-linecap="round" stroke-linejoin="round" stroke-miterlimit="10" /></symbol><symbol viewBox="0 0 447.645 447.645" id="car-compact"><path d="M447.639 244.402c0-8.805-1.988-17.215-5.578-24.909a81.182 81.182 0 00-1.322-5.89l-38.884-96.365-.263-.867c-13.605-40.509-32.963-78.001-82.049-78.001H131.868c-50.296 0-68.069 38.421-81.972 77.776l-40.673 96.6C3.343 222.167 0 232.944 0 244.402v29.986c0 4.636.548 9.171 1.59 13.539A23.568 23.568 0 000 296.408v89.185c0 13.078 10.602 23.682 23.68 23.682h49.14c13.071 0 23.673-10.604 23.673-23.682v-44.599h257.46v44.599c0 13.078 10.604 23.682 23.683 23.682h46.326c13.083 0 23.683-10.604 23.683-23.682v-89.195a23.71 23.71 0 00-1.588-8.474 58.573 58.573 0 001.588-13.54v-29.981h-.006zM78.754 125.821c15.483-43.683 27.934-57.018 53.114-57.018h187.664c24.995 0 38.913 14.873 53.056 56.83l28.375 57.502c-9.265-3.431-19.461-5.335-30.173-5.335H76.849c-9.645 0-18.862 1.551-27.366 4.358l29.271-56.337zm24.375 159.955H51.281c-9.335 0-16.906-7.578-16.906-16.912 0-9.337 7.571-16.91 16.906-16.91h51.848c9.339 0 16.91 7.573 16.91 16.91 0 9.334-7.576 16.912-16.91 16.912zm183.155-3.387h-120.6c-5.913 0-10.704-4.794-10.704-10.704 0-5.921 4.791-10.713 10.704-10.713h120.6c5.92 0 10.71 4.792 10.71 10.713 0 5.91-4.79 10.704-10.71 10.704zm108.767 3.387h-51.846c-9.343 0-16.91-7.578-16.91-16.912 0-9.337 7.573-16.91 16.91-16.91h51.846c9.343 0 16.916 7.573 16.916 16.91 0 9.334-7.573 16.912-16.916 16.912z" /></symbol><symbol viewBox="0 0 170 139" id="cimbalov-mini"><style>#cimbalov-mini .st0{fill:none;stroke:#000;stroke-miterlimit:10}#cimbalov-mini .st1{fill:#333}</style><path class="st0" d="M34.428 6.726h41.823v31.76H34.428zM45.465 73.957h30.786V38.801H34.428v23.647zM86.942 12.858h51.476v30.817H86.942zM86.942 43.989h51.476v29.873H86.942zM121.847 74.492H151.5v39.527h-29.653zM92.822 74.492h28.836v39.527H92.822zM63.578 74.492h28.836v39.527H63.578z" /><path class="st0" d="M33.233 114.019h29.905V74.492H45.34l-6.29-6.29-5.817 6.29z" /><path class="st1" d="M139.236 103.422h-3.553v-13.68l-4.245 1.322V88.17l7.42-2.642h.378v17.893zM113.325 103.422h-12.264V101l5.786-6.163c.786-.88 1.384-1.635 1.761-2.264.378-.66.566-1.258.566-1.855 0-.787-.188-1.415-.597-1.887-.41-.44-.975-.692-1.73-.692-.817 0-1.446.283-1.887.818-.471.566-.691 1.289-.691 2.17h-3.554c0-1.101.252-2.076.786-2.988a5.463 5.463 0 012.202-2.107c.943-.503 2.012-.754 3.239-.754 1.855 0 3.27.44 4.308 1.32 1.037.88 1.54 2.139 1.54 3.742 0 .88-.22 1.793-.691 2.705s-1.258 1.98-2.359 3.207l-4.056 4.277h7.704v2.893h-.063zM75.433 92.919h1.887c.912 0 1.572-.22 2.012-.66.44-.44.66-1.038.66-1.793 0-.723-.22-1.29-.66-1.698-.44-.409-1.006-.597-1.76-.597-.692 0-1.258.188-1.699.566-.471.377-.692.849-.692 1.446h-3.553c0-.943.252-1.76.755-2.516.503-.754 1.195-1.32 2.107-1.73a7.156 7.156 0 012.987-.628c1.887 0 3.365.44 4.434 1.352 1.069.912 1.604 2.138 1.604 3.742 0 .818-.252 1.572-.755 2.264s-1.164 1.227-1.981 1.573c1.006.345 1.76.911 2.264 1.635.503.723.755 1.572.755 2.547 0 1.604-.566 2.861-1.73 3.805-1.163.943-2.704 1.446-4.591 1.446-1.792 0-3.239-.471-4.37-1.415s-1.699-2.201-1.699-3.742h3.553c0 .66.252 1.227.755 1.635.503.44 1.132.63 1.855.63.85 0 1.51-.22 1.981-.661.472-.44.724-1.038.724-1.761 0-1.792-.975-2.673-2.956-2.673h-1.887V92.92zM52.76 96.692h2.013v2.862h-2.012v3.868h-3.554v-3.868h-7.326l-.158-2.233 7.453-11.792h3.585v11.163zm-7.515 0h3.962v-6.32l-.22.409-3.742 5.911zM49.365 59.398l1.037-9.088h10.032v2.956h-7.107l-.44 3.836c.849-.44 1.73-.66 2.704-.66 1.698 0 3.05.534 3.993 1.572.975 1.07 1.447 2.547 1.447 4.434 0 1.164-.252 2.201-.723 3.113S59.113 67.196 58.2 67.7c-.912.504-1.981.755-3.208.755-1.069 0-2.075-.22-3.018-.66-.912-.44-1.667-1.07-2.202-1.856-.534-.786-.817-1.698-.849-2.704h3.522c.063.755.346 1.32.786 1.73.44.408 1.038.629 1.761.629.818 0 1.415-.283 1.856-.88.44-.567.66-1.384.66-2.454 0-1.006-.251-1.792-.755-2.327-.503-.534-1.195-.817-2.138-.817-.849 0-1.54.22-2.044.66l-.346.315-2.861-.692zM58.484 14.902v2.925h-.346c-1.604.031-2.893.44-3.868 1.258-.975.817-1.572 1.95-1.76 3.364.943-.975 2.138-1.446 3.584-1.446 1.54 0 2.799.566 3.71 1.666.913 1.1 1.384 2.579 1.384 4.403 0 1.163-.251 2.2-.754 3.144-.504.944-1.227 1.667-2.139 2.201-.912.535-1.95.787-3.113.787-1.887 0-3.396-.66-4.56-1.981s-1.729-3.05-1.729-5.252v-1.29c0-1.949.377-3.647 1.1-5.125a8.178 8.178 0 013.145-3.459c1.384-.817 2.956-1.226 4.78-1.226h.566v.031zm-3.46 8.994c-.565 0-1.1.157-1.571.44a2.56 2.56 0 00-1.038 1.195V26.6c0 1.195.22 2.107.692 2.767.471.66 1.132 1.007 1.98 1.007.755 0 1.384-.315 1.856-.912s.692-1.384.692-2.327c0-.975-.252-1.761-.723-2.359-.44-.597-1.101-.88-1.887-.88zM120.589 18.644l-6.918 15.912h-3.742l6.918-15.031h-8.9v-2.862h12.642v1.981zM120.086 52.543c0 .88-.22 1.635-.66 2.295-.44.66-1.038 1.195-1.793 1.604.88.409 1.54 1.006 2.075 1.73.504.723.755 1.603.755 2.578 0 1.604-.534 2.83-1.635 3.773-1.1.944-2.547 1.384-4.402 1.384-1.856 0-3.334-.472-4.434-1.384-1.1-.911-1.635-2.17-1.635-3.773 0-1.006.251-1.855.754-2.579a5.241 5.241 0 012.044-1.73c-.754-.408-1.352-.942-1.792-1.603-.44-.66-.66-1.446-.66-2.295 0-1.51.503-2.736 1.509-3.648 1.006-.912 2.39-1.352 4.15-1.352 1.73 0 3.114.44 4.12 1.352s1.604 2.107 1.604 3.648zm-3.176 7.987c0-.786-.22-1.415-.66-1.855-.44-.472-1.07-.692-1.824-.692s-1.353.22-1.793.692c-.44.471-.66 1.1-.66 1.886 0 .755.22 1.384.66 1.856.44.471 1.07.691 1.856.691.754 0 1.383-.22 1.823-.66.378-.503.598-1.132.598-1.918zm-.378-7.799c0-.691-.188-1.257-.566-1.666-.377-.41-.88-.63-1.572-.63-.66 0-1.195.22-1.54.63-.378.409-.567.975-.567 1.698s.189 1.29.566 1.73c.378.44.88.66 1.573.66.66 0 1.195-.22 1.54-.66.41-.472.566-1.038.566-1.762z" /></symbol><symbol viewBox="0 0 1920 954" id="cimbalov-svg"><style>#cimbalov-svg .st0{fill:none;stroke:#000;stroke-miterlimit:10}#cimbalov-svg .st1{fill:#fdcf41}#cimbalov-svg .st2{fill:#fff}</style><path class="st0" d="M774 288h265.1v145h-.1-.3H714v-67h32.1v-67h27.4c.2-1.7.3-9.3.5-11zM1039.3 434.7v162H839.9c-14.4-13.6-28.8-27.1-43.3-40.7h-60v-51.3h-24.3v-70h327zM1040 314h231v14h13.5v30.5h30.5v101h-274.7L1040 314zM1040.8 596.4h273.8V460.6h-274c0 44.9.1 90.9.2 135.8z" /><path class="st0" d="M813 573.3c-8 8.2-16 16.4-24 24.7v204.7h139v-204h-89.2c-8.6-8.5-17.2-16.9-25.8-25.4zM929.7 598.7H1055v204H929.7zM1056.7 598.7H1186v204h-129.3zM1187.7 598.7h136.7v204h-136.7z" /><circle class="st1" cx="999" cy="324.7" r="17.5" /><path class="st2" d="M1002.3 315.9v2.8h-.3c-1.5 0-2.8.4-3.7 1.2s-1.5 1.8-1.7 3.2c.9-.9 2.1-1.4 3.4-1.4 1.5 0 2.7.5 3.5 1.6s1.3 2.5 1.3 4.2c0 1.1-.2 2.1-.7 3s-1.2 1.6-2 2.1-1.9.8-3 .8c-1.8 0-3.2-.6-4.4-1.9s-1.7-2.9-1.7-5v-1.2c0-1.9.3-3.5 1-4.9s1.7-2.5 3-3.3 2.8-1.2 4.6-1.2h.7zm-3.3 8.6c-.5 0-1 .1-1.5.4-.4.3-.8.7-1 1.1v1c0 1.1.2 2 .7 2.6.4.6 1.1 1 1.9 1 .7 0 1.3-.3 1.8-.9.4-.6.7-1.3.7-2.2 0-.9-.2-1.7-.7-2.2-.5-.5-1.1-.8-1.9-.8z" /><circle class="st1" cx="1000.5" cy="465.7" r="17.5" /><path class="st2" d="M995.1 465.7l1-8.7h9.6v2.8h-6.8l-.4 3.7c.8-.4 1.7-.6 2.6-.6 1.6 0 2.9.5 3.8 1.5s1.4 2.4 1.4 4.2c0 1.1-.2 2.1-.7 3s-1.1 1.5-2 2-1.9.7-3.1.7c-1 0-2-.2-2.9-.6s-1.6-1-2.1-1.8-.8-1.6-.8-2.6h3.4c.1.7.3 1.3.7 1.7s1 .6 1.7.6c.8 0 1.4-.3 1.8-.8s.6-1.3.6-2.3c0-1-.2-1.7-.7-2.2s-1.2-.8-2-.8-1.5.2-2 .6l-.3.3-2.8-.7z" /><circle class="st1" cx="900.3" cy="626.4" r="17.5" /><path class="st2" d="M904.6 628.5h1.9v2.7h-1.9v3.7h-3.4v-3.7h-7l-.2-2.1 7.1-11.2h3.4v10.6zm-7.1 0h3.8v-6l-.2.4-3.6 5.6z" /><circle class="st1" cx="1028.2" cy="626.4" r="17.5" /><path class="st2" d="M1026.1 624.9h1.8c.9 0 1.5-.2 1.9-.6s.6-1 .6-1.7-.2-1.2-.6-1.6-1-.6-1.7-.6c-.6 0-1.2.2-1.6.5s-.7.8-.7 1.4h-3.4c0-.9.2-1.7.7-2.4s1.2-1.3 2-1.7 1.8-.6 2.9-.6c1.8 0 3.2.4 4.2 1.3s1.5 2.1 1.5 3.6c0 .8-.2 1.5-.7 2.2s-1.1 1.2-1.9 1.5c1 .3 1.7.9 2.2 1.5s.7 1.5.7 2.4c0 1.5-.6 2.7-1.7 3.6s-2.6 1.4-4.4 1.4c-1.7 0-3.1-.4-4.2-1.3s-1.6-2.1-1.6-3.6h3.4c0 .6.2 1.2.7 1.6s1.1.6 1.8.6c.8 0 1.4-.2 1.9-.6s.7-1 .7-1.7c0-1.7-.9-2.6-2.8-2.6h-1.8v-2.6z" /><circle class="st1" cx="1156" cy="626.4" r="17.5" /><path class="st2" d="M1162.1 635h-11.7v-2.3l5.5-5.9c.8-.8 1.3-1.6 1.7-2.2s.5-1.2.5-1.8c0-.8-.2-1.4-.6-1.8s-.9-.7-1.6-.7c-.8 0-1.4.3-1.8.8s-.7 1.2-.7 2.1h-3.4c0-1 .2-2 .7-2.8s1.2-1.5 2.1-2 1.9-.7 3.1-.7c1.8 0 3.1.4 4.1 1.3s1.5 2 1.5 3.6c0 .8-.2 1.7-.7 2.6s-1.2 1.9-2.3 3.1l-3.9 4.1h7.3v2.6z" /><circle class="st1" cx="1297.5" cy="626.4" r="17.5" /><path class="st2" d="M1301.2 634.9h-3.4v-13.1l-4 1.3v-2.8l7.1-2.5h.4v17.1z" /><circle class="st1" cx="1250.6" cy="347" r="17.5" /><path class="st2" d="M1256.7 340.3l-6.6 15.2h-3.6l6.6-14.3h-8.5v-2.7h12v1.8z" /><circle class="st1" cx="1285.6" cy="491.8" r="17.5" /><path class="st2" d="M1291 487.9c0 .8-.2 1.6-.6 2.2s-1 1.2-1.7 1.5c.8.4 1.5.9 2 1.6s.7 1.5.7 2.5c0 1.5-.5 2.7-1.5 3.6s-2.4 1.3-4.2 1.3-3.2-.4-4.2-1.3-1.6-2.1-1.6-3.6c0-.9.2-1.8.7-2.5s1.1-1.3 2-1.6c-.7-.4-1.3-.9-1.7-1.5s-.6-1.4-.6-2.2c0-1.5.5-2.6 1.5-3.5s2.3-1.3 3.9-1.3c1.7 0 3 .4 3.9 1.3s1.4 2 1.4 3.5zm-3 7.6c0-.7-.2-1.3-.6-1.8s-1-.7-1.7-.7-1.3.2-1.7.7-.6 1-.6 1.8c0 .7.2 1.3.6 1.8s1 .7 1.8.7c.7 0 1.3-.2 1.7-.6s.5-1.2.5-1.9zm-.3-7.5c0-.7-.2-1.2-.5-1.6s-.8-.6-1.5-.6c-.6 0-1.1.2-1.5.6s-.5.9-.5 1.6c0 .7.2 1.2.5 1.6s.8.6 1.5.6 1.1-.2 1.5-.6.5-.9.5-1.6z" /></symbol><symbol viewBox="0 0 612 612" id="cross"><path fill="#FFF" d="M612 36.004L576.521.603 306 270.608 35.478.603 0 36.004l270.522 270.007L0 575.997l35.478 35.4L306 341.411l270.521 269.986 35.479-35.4-270.541-269.986z" /></symbol><symbol viewBox="0 0 512.171 512.171" id="down-arrow"><path d="M479.046 283.925c-1.664-3.989-5.547-6.592-9.856-6.592H352.305V10.667C352.305 4.779 347.526 0 341.638 0H170.971c-5.888 0-10.667 4.779-10.667 10.667v266.667H42.971a10.702 10.702 0 00-9.856 6.571c-1.643 3.989-.747 8.576 2.304 11.627l212.8 213.504c2.005 2.005 4.715 3.136 7.552 3.136s5.547-1.131 7.552-3.115l213.419-213.504a10.645 10.645 0 002.304-11.628z" /></symbol><symbol viewBox="0 0 433.5 433.5" id="download-button"><path d="M395.25 153h-102V0h-153v153h-102l178.5 178.5L395.25 153zm-357 229.5v51h357v-51h-357z" /></symbol><symbol viewBox="0 0 50 72.1" id="energy-effect"><style>#energy-effect .st0,#energy-effect .st1{fill:none;stroke:#ff9f10;stroke-width:4;stroke-miterlimit:10}#energy-effect .st1{stroke-width:3}</style><path class="st0" d="M10.1 23c5.1-4.1 10.2-8.2 15.2-12.3 4.9 4.1 9.9 8.2 14.8 12.3 1 .8 2.5.7 3.4-.2l.9-.9c1-1 .9-2.7-.2-3.6-5.9-4.9-11.9-9.9-17.8-14.8-.6-.5-1.4-.5-2 0-6.1 4.9-12.2 9.9-18.3 14.8-1.1.9-1.2 2.6-.2 3.6l1 1c.9.8 2.3.8 3.2.1zM34.3 29.6v11.2H15.9V29.6c0-1.5-5.8-1.5-5.8 0v15.6c0 .7.6 1.2 1.3 1.2h27.5c.7 0 1.3-.6 1.3-1.2V29.6c-.1-1.6-5.9-1.6-5.9 0z" /><path class="st1" d="M34.3 46.7H15.9c-1.5 0-1.5 4.2 0 4.2h18.4c1.4-.1 1.4-4.2 0-4.2zM34.3 54.6H15.9c-1.5 0-1.5 4.2 0 4.2h18.4c1.5-.1 1.5-4.2 0-4.2zM25 67.5c3.8 0 7-2 7-4.5H18c0 2.4 3.2 4.5 7 4.5z" /><path fill="none" stroke="#ff9f10" stroke-width="2" stroke-miterlimit="10" d="M22.1 27.3h2.7l-.7 5.2 4-7.4-2.7-.1.6-5.2z" /></symbol><symbol viewBox="0 0 483.3 483.3" id="envelope"><path d="M424.3 57.75H59.1c-32.6 0-59.1 26.5-59.1 59.1v249.6c0 32.6 26.5 59.1 59.1 59.1h365.1c32.6 0 59.1-26.5 59.1-59.1v-249.5c.1-32.6-26.4-59.2-59-59.2zm32.1 308.7c0 17.7-14.4 32.1-32.1 32.1H59.1c-17.7 0-32.1-14.4-32.1-32.1v-249.5c0-17.7 14.4-32.1 32.1-32.1h365.1c17.7 0 32.1 14.4 32.1 32.1v249.5h.1z" /><path d="M304.8 238.55l118.2-106c5.5-5 6-13.5 1-19.1-5-5.5-13.5-6-19.1-1l-163 146.3-31.8-28.4c-.1-.1-.2-.2-.2-.3-.7-.7-1.4-1.3-2.2-1.9L78.3 112.35c-5.6-5-14.1-4.5-19.1 1.1-5 5.6-4.5 14.1 1.1 19.1l119.6 106.9-119.1 111.5c-5.4 5.1-5.7 13.6-.6 19.1 2.7 2.8 6.3 4.3 9.9 4.3 3.3 0 6.6-1.2 9.2-3.6l120.9-113.1 32.8 29.3c2.6 2.3 5.8 3.4 9 3.4s6.5-1.2 9-3.5l33.7-30.2 120.2 114.2c2.6 2.5 6 3.7 9.3 3.7 3.6 0 7.1-1.4 9.8-4.2 5.1-5.4 4.9-14-.5-19.1l-118.7-112.7z" /></symbol><symbol viewBox="0 0 486.392 486.392" id="facebook"><path d="M273.443 159.354l.122-41.951c0-21.857 1.52-33.561 32.831-33.561h57.941V0h-83.021c-80.559 0-99.102 41.617-99.102 109.985l.091 49.369-61.133.03v83.811h61.133v243.196h91.168l.061-243.196 82.778-.03 8.907-83.811h-91.776z" fill="#090509" /></symbol><symbol viewBox="0 0 1920 1080" id="family-club-house"><style>#family-club-house .st0{fill:none;stroke:#000;stroke-width:2;stroke-miterlimit:10}</style><path id="family-club-house__x38_" class="st0" d="M1042.5 750.5h327.003v226.067H1267v12.943H1220v-13.52h-153.5v-40.493h-23.087L1042.5 750.5z" /><path id="family-club-house__x37_" class="st0" d="M1041.5 534h272.002v62.532h39.998V631.5h16.508v116.504H1042c-.167-70.668-.333-143.336-.5-214.004z" /><path id="family-club-house__x31_" class="st0" d="M599.667 754h301.667v96h-3.801v84.667h-19.2v41.367H724.332V990H677v-13.37h-79.003l1.67-222.63z" /><path id="family-club-house__x32_" class="st0" d="M599.667 619h8.34v-84.667h293.327V751.67H599L599.667 619z" /><path id="family-club-house__x33_" class="st0" d="M720.667 111.333V398H532.995L509 391l4-240.667h19.026v-28.03h53.644L623 100l25.333 12.667 72.334-1.334z" /><path id="family-club-house__x34_" class="st0" d="M829.333 111.667L851.667 123h56.004v275H722.999V111l106.334.667z" /><path id="family-club-house__x35_" class="st0" d="M910.333 111.667h115.336l13.998 11.666h63.67c0 91.336 1 183.672 1 275.008-64.337 0-129.674-1-194.01-1l.006-285.674z" /><path id="family-club-house__x36_" class="st0" d="M1106.333 112.333h115.336l14.998 11h61c.11 5.89.222 11.778.333 17.667h15.337L1315 398.667h-207.667l-1-286.334z" /></symbol><symbol viewBox="0 0 138 136" id="family-club-popup"><style>#family-club-popup .st0{fill:none;stroke:#000;stroke-miterlimit:10}#family-club-popup .st1{enable-background:new}#family-club-popup .st2{fill:#333}</style><path class="st0" d="M14.3 18.5h-6v33.8h27.5V12.5H26v6H14.3zM46 12.5h-9.4v39.8h26.1V20.2h-5.9c-3.5-2.5-7.2-5.3-10.8-7.7zM73 12.5h-9.4v39.8h26.1V20.2h-5.9c-3.5-2.5-7.2-5.3-10.8-7.7zM100 12.5h-9.4v39.8h28.1V20.2h-7.9c-3.5-2.5-7.2-5.3-10.8-7.7zM20 84.8V72.4h40.8V102H28.2c-2.8-5.7-5.5-11.5-8.2-17.2zM20.4 102.6h40.4v24.5h-2.6v5.2H28c-2.5-5.6-5-11.3-7.5-16.9 0-4.3-.1-8.6-.1-12.8zM82.3 72.4h36.3v29.5H82.4c0-9.8 0-19.6-.1-29.5zM82.6 103h36.1v16.2h4.1v12.3H84.3v-5.1h-1.8c0-7.9 0-15.6.1-23.4z" /><g class="st1"><path class="st2" d="M107.2 25.8v2.1h-.2c-1.1 0-2.1.3-2.8.9s-1.1 1.4-1.3 2.4c.7-.7 1.5-1 2.6-1s2 .4 2.7 1.2 1 1.8 1 3.1c0 .8-.2 1.6-.5 2.3s-.9 1.2-1.5 1.6-1.4.6-2.2.6c-1.3 0-2.4-.5-3.3-1.4s-1.2-2.2-1.2-3.8v-.9c0-1.4.3-2.6.8-3.7s1.3-1.9 2.3-2.5 2.1-.9 3.4-.9h.2zm-2.5 6.4c-.4 0-.8.1-1.1.3-.3.2-.6.5-.7.8v.8c0 .8.2 1.5.5 2s.8.7 1.4.7c.5 0 1-.2 1.3-.6s.5-1 .5-1.7-.2-1.3-.5-1.7-.8-.6-1.4-.6z" /></g><g class="st1"><path class="st2" d="M72.5 32.5l.7-6.5h7.2v2.1h-5.1l-.3 2.7c.6-.3 1.2-.5 1.9-.5 1.2 0 2.2.4 2.9 1.1s1 1.8 1 3.2c0 .8-.2 1.6-.5 2.2-.3.7-.8 1.2-1.5 1.5-.7.4-1.4.5-2.3.5-.8 0-1.5-.2-2.2-.5-.7-.3-1.2-.8-1.6-1.3-.4-.6-.6-1.2-.6-1.9h2.5c.1.5.2.9.6 1.2.3.3.7.4 1.3.4.6 0 1-.2 1.3-.6.3-.4.5-1 .5-1.8 0-.7-.2-1.3-.5-1.7s-.9-.6-1.5-.6-1.1.2-1.5.5l-.3.5-2-.5z" /></g><g class="st1"><path class="st2" d="M53.4 33.9h1.5v2h-1.5v2.8h-2.5V36h-5.2l-.1-1.6 5.3-8.4h2.6v7.9zm-5.4 0h2.8v-4.5l-.2.3-2.6 4.2z" /></g><g class="st1"><path class="st2" d="M19.7 31.2h1.4c.6 0 1.1-.2 1.4-.5s.5-.7.5-1.2-.2-.9-.5-1.2-.7-.4-1.3-.4c-.5 0-.9.1-1.2.4-.3.3-.5.6-.5 1H17c0-.7.2-1.3.5-1.8.4-.5.9-.9 1.5-1.2s1.4-.4 2.1-.4c1.4 0 2.4.3 3.2 1 .8.6 1.2 1.5 1.2 2.7 0 .6-.2 1.1-.5 1.6s-.8.9-1.4 1.1c.7.3 1.3.6 1.6 1.2s.5 1.1.5 1.8c0 1.1-.4 2-1.2 2.7s-1.9 1-3.3 1c-1.3 0-2.3-.3-3.1-1s-1.2-1.6-1.2-2.7h2.5c0 .5.2.9.5 1.2s.8.5 1.3.5c.6 0 1.1-.2 1.4-.5.3-.3.5-.7.5-1.3 0-1.3-.7-1.9-2.1-1.9h-1.3v-2.1z" /></g><g class="st1"><path class="st2" d="M44.4 90.8h-8.8V89l4.1-4.4c.6-.6 1-1.2 1.3-1.6s.4-.9.4-1.3c0-.6-.1-1-.4-1.3-.3-.3-.7-.5-1.2-.5-.6 0-1 .2-1.4.6-.3.4-.5.9-.5 1.6h-2.5c0-.8.2-1.5.6-2.1s.9-1.1 1.6-1.5c.7-.4 1.5-.5 2.3-.5 1.3 0 2.3.3 3.1.9s1.1 1.5 1.1 2.7c0 .6-.2 1.3-.5 1.9s-.9 1.4-1.7 2.3L39 88.9h5.5v1.9z" /></g><g class="st1"><path class="st2" d="M41.8 122.1h-2.5v-9.8l-3 .9v-2.1l5.3-1.9h.3v12.9z" /></g><g class="st1"><path class="st2" d="M106.8 79.4l-4.9 11.4h-2.7l5-10.7h-6.4v-2h9v1.3z" /></g><g class="st1"><path class="st2" d="M106.5 112.7c0 .6-.2 1.2-.5 1.7s-.7.9-1.3 1.2c.6.3 1.1.7 1.5 1.2.4.5.5 1.1.5 1.9 0 1.1-.4 2-1.2 2.7-.8.7-1.8 1-3.2 1s-2.4-.3-3.2-1-1.2-1.6-1.2-2.7c0-.7.2-1.3.5-1.9s.9-.9 1.5-1.2c-.5-.3-1-.7-1.3-1.2-.3-.5-.5-1-.5-1.7 0-1.1.4-2 1.1-2.6.7-.6 1.7-1 3-1 1.2 0 2.2.3 3 1 .9.6 1.3 1.5 1.3 2.6zm-2.3 5.7c0-.6-.2-1-.5-1.3s-.8-.5-1.3-.5-1 .2-1.3.5-.5.8-.5 1.3.2 1 .5 1.3.8.5 1.3.5c.6 0 1-.2 1.3-.5.3-.3.5-.7.5-1.3zm-.3-5.6c0-.5-.1-.9-.4-1.2-.3-.3-.6-.5-1.1-.5-.5 0-.8.1-1.1.4s-.4.7-.4 1.2.1.9.4 1.2.6.5 1.1.5.9-.2 1.1-.5c.3-.1.4-.5.4-1.1z" /></g></symbol><symbol viewBox="0 0 170 168" id="family-mini"><style>#family-mini .st0{fill:none;stroke:#000;stroke-miterlimit:10}#family-mini .st1{enable-background:new}#family-mini .st2{fill:#333}</style><path class="st0" d="M17.746 23.679H10.4v41.38h33.667V16.333H32.07v7.346H17.746zM56.555 16.333H45.047V65.06H77V25.76h-7.223c-4.285-3.06-8.815-6.488-13.222-9.427zM89.61 16.333H78.102V65.06h31.953V25.76h-7.223c-4.285-3.06-8.815-6.488-13.222-9.427zM122.665 16.333h-11.508V65.06h34.402V25.76h-9.672c-4.285-3.06-8.815-6.488-13.222-9.427zM24.724 104.848V89.667h49.95v36.238H34.763c-3.428-6.978-6.734-14.08-10.04-21.057zM25.214 126.64h49.46v29.994H71.49V163H34.518c-3.06-6.856-6.121-13.834-9.182-20.69 0-5.264-.122-10.529-.122-15.67zM100.995 89.667h44.441v36.115h-44.318c0-11.997 0-23.995-.123-36.115zM101.363 127.13h44.196v19.832h5.02v15.059h-47.135v-6.244h-2.204c0-9.672 0-19.099.123-28.648z" /><g class="st1"><path class="st2" d="M131.48 32.616v2.571h-.245c-1.347 0-2.571.367-3.428 1.102-.857.734-1.347 1.714-1.592 2.938.857-.857 1.837-1.224 3.183-1.224 1.347 0 2.449.49 3.306 1.469s1.224 2.204 1.224 3.795c0 .98-.245 1.959-.612 2.816-.367.857-1.102 1.469-1.836 1.959-.735.49-1.714.734-2.694.734-1.591 0-2.938-.612-4.04-1.714-1.102-1.102-1.469-2.693-1.469-4.652v-1.102c0-1.714.367-3.183.98-4.53.612-1.346 1.591-2.326 2.815-3.06s2.571-1.102 4.163-1.102h.245zm-3.061 7.835c-.49 0-.98.123-1.347.368-.367.244-.734.612-.857.979v.98c0 .979.245 1.836.612 2.448.368.612.98.857 1.714.857.612 0 1.225-.245 1.592-.735s.612-1.224.612-2.08c0-.858-.245-1.592-.612-2.082s-.98-.735-1.714-.735z" /></g><g class="st1"><path class="st2" d="M88.998 40.819l.857-7.958h8.814v2.57h-6.243l-.368 3.306c.735-.367 1.47-.612 2.326-.612 1.47 0 2.694.49 3.55 1.347.858.857 1.225 2.204 1.225 3.918 0 .979-.245 1.958-.612 2.693a3.376 3.376 0 01-1.836 1.836c-.857.49-1.714.612-2.816.612-.98 0-1.837-.244-2.694-.612s-1.469-.98-1.958-1.591c-.49-.735-.735-1.47-.735-2.326h3.06c.123.612.245 1.102.735 1.469.367.367.857.49 1.592.49.734 0 1.224-.245 1.591-.735.368-.49.612-1.224.612-2.204 0-.857-.244-1.591-.612-2.081-.367-.49-1.102-.735-1.836-.735s-1.347.245-1.837.613l-.367.612-2.448-.612z" /></g><g class="st1"><path class="st2" d="M65.614 42.533h1.837v2.448h-1.837v3.428h-3.06v-3.305h-6.367l-.122-1.96 6.489-10.283h3.183v9.672h-.123zm-6.61 0h3.427v-5.51l-.245.368-3.183 5.142z" /></g><g class="st1"><path class="st2" d="M24.357 39.227h1.714c.734 0 1.346-.245 1.714-.612.367-.367.612-.857.612-1.47 0-.611-.245-1.101-.612-1.468-.368-.368-.857-.49-1.592-.49-.612 0-1.102.122-1.47.49s-.611.734-.611 1.224h-3.06c0-.857.244-1.592.611-2.204a5.42 5.42 0 011.837-1.469c.734-.367 1.714-.49 2.57-.49 1.715 0 2.939.368 3.918 1.225.98.734 1.47 1.836 1.47 3.305 0 .735-.246 1.347-.613 1.959a3.166 3.166 0 01-1.714 1.347c.857.367 1.592.734 1.959 1.469.367.734.612 1.347.612 2.204 0 1.346-.49 2.448-1.469 3.305-.98.857-2.326 1.224-4.04 1.224-1.592 0-2.816-.367-3.795-1.224-.98-.857-1.47-1.959-1.47-3.305h3.061c0 .612.245 1.101.612 1.469.368.367.98.612 1.592.612.735 0 1.347-.245 1.714-.612.367-.368.612-.857.612-1.592 0-1.591-.857-2.326-2.57-2.326h-1.592v-2.571z" /></g><g class="st1"><path class="st2" d="M54.596 112.193H43.822v-2.204l5.02-5.386c.734-.735 1.224-1.47 1.591-1.96.368-.489.49-1.101.49-1.59 0-.735-.122-1.225-.49-1.592a2.027 2.027 0 00-1.469-.612c-.734 0-1.224.244-1.714.734-.367.49-.612 1.102-.612 1.959h-3.06c0-.98.244-1.836.734-2.57a5.667 5.667 0 011.959-1.837c.857-.49 1.836-.612 2.816-.612 1.591 0 2.815.367 3.795 1.101.98.735 1.347 1.837 1.347 3.306 0 .734-.245 1.591-.613 2.326-.367.735-1.101 1.714-2.08 2.816l-3.551 3.795h6.733v2.326h-.122z" /></g><g class="st1"><path class="st2" d="M51.413 150.513h-3.06v-11.998l-3.674 1.102v-2.571l6.489-2.326h.367v15.793h-.122z" /></g><g class="st1"><path class="st2" d="M130.99 98.237l-5.999 13.956h-3.306l6.122-13.1h-7.835v-2.448h11.018v1.592z" /></g><g class="st1"><path class="st2" d="M130.623 139.004c0 .735-.245 1.47-.613 2.082a3.72 3.72 0 01-1.591 1.469 5.42 5.42 0 011.836 1.469c.49.612.612 1.347.612 2.326 0 1.347-.49 2.449-1.469 3.306-.98.856-2.203 1.224-3.917 1.224s-2.939-.368-3.918-1.224c-.98-.857-1.47-1.96-1.47-3.306 0-.857.246-1.592.613-2.326.367-.735 1.102-1.102 1.836-1.47-.612-.366-1.224-.856-1.591-1.468s-.612-1.225-.612-2.082c0-1.346.49-2.448 1.346-3.183s2.082-1.224 3.673-1.224c1.47 0 2.694.367 3.673 1.224 1.102.735 1.592 1.837 1.592 3.183zm-2.816 6.979c0-.735-.245-1.225-.612-1.592-.368-.367-.98-.612-1.592-.612-.612 0-1.224.245-1.591.612-.368.367-.613.98-.613 1.592 0 .612.245 1.224.613 1.591.367.368.979.612 1.591.612.735 0 1.224-.244 1.592-.612.367-.367.612-.857.612-1.591zm-.367-6.856c0-.612-.123-1.102-.49-1.47-.367-.367-.735-.611-1.347-.611s-.98.122-1.347.49c-.367.367-.49.856-.49 1.468s.123 1.102.49 1.47c.368.367.735.612 1.347.612s1.102-.245 1.347-.612c.367-.123.49-.613.49-1.347z" /></g></symbol><symbol viewBox="0 0 170 170" id="family-new-mini-svg"><path class="st0" d="M45.667 15.333v49.001h34V25.332h-7.712L57.75 15.5l-12.083-.167zM9.5 21.75h23.25v-6.504h11.793v49.007H9.499L9.5 21.75zM25.25 88.875h50.625v37.875h-41.13v-6.38L25 105.75l.25-16.875zM75.625 157.875h-3.377v6.88H34.495v-6.26L25 144v-16.517h51.004l-.379 30.392z" /><g class="st1"><path class="st2" d="M65.967 42.203h1.837v2.449h-1.837v3.428h-3.06v-3.306H56.54l-.123-1.959 6.489-10.284h3.183v9.672h-.123zm-6.61 0h3.427v-5.51l-.245.368-3.183 5.142z" /></g><g class="st1"><path class="st2" d="M24.71 38.898h1.714c.734 0 1.346-.245 1.714-.613.367-.367.612-.857.612-1.469 0-.612-.245-1.101-.612-1.469-.368-.367-.857-.49-1.592-.49-.612 0-1.102.123-1.469.49s-.612.735-.612 1.225h-3.06c0-.857.244-1.592.611-2.204a5.42 5.42 0 011.837-1.47c.734-.367 1.714-.489 2.57-.489 1.715 0 2.939.367 3.918 1.224.98.735 1.47 1.837 1.47 3.306 0 .734-.245 1.346-.613 1.959a3.166 3.166 0 01-1.714 1.346c.857.368 1.592.735 1.96 1.47.367.734.611 1.346.611 2.203 0 1.347-.49 2.449-1.469 3.306-.98.857-2.326 1.224-4.04 1.224-1.591 0-2.816-.367-3.795-1.224-.98-.857-1.47-1.96-1.47-3.306h3.061c0 .612.245 1.102.613 1.47.367.366.979.611 1.591.611.735 0 1.347-.245 1.714-.612s.612-.857.612-1.591c0-1.592-.857-2.326-2.57-2.326H24.71v-2.571z" /></g><g class="st1"><path class="st2" d="M54.95 111.864H44.175v-2.204l5.019-5.387c.735-.734 1.224-1.469 1.592-1.959.367-.49.49-1.101.49-1.591 0-.735-.123-1.224-.49-1.592a2.027 2.027 0 00-1.47-.612c-.734 0-1.224.245-1.714.735-.367.49-.612 1.102-.612 1.959h-3.06c0-.98.245-1.837.734-2.571a5.667 5.667 0 011.96-1.837c.856-.49 1.835-.612 2.815-.612 1.591 0 2.816.367 3.795 1.102.98.734 1.347 1.836 1.347 3.305 0 .735-.245 1.592-.612 2.327-.368.734-1.102 1.714-2.082 2.815l-3.55 3.796h6.733v2.326h-.122z" /></g><g class="st1"><path class="st2" d="M51.766 150.183h-3.06v-11.998l-3.673 1.102v-2.57l6.488-2.327h.367v15.793h-.122z" /></g></symbol><symbol viewBox="0 0 1920 954" id="family-new-svg"><style>#family-new-svg .st0{fill:none;stroke:#000;stroke-miterlimit:10}#family-new-svg .st1{fill:#fdcf41}#family-new-svg .st2{fill:#fff}</style><path class="st0" d="M617.333 699H916.67v94h-5.003v81.333h-18.36v41.065L624 916.5l.5-21-11 .5 3.833-197zM635 489.5h281V697H614.496V568.984H632l3-79.484zM546.667 119h67.346l60.654-38h67.346v277.337H568.621L539.333 353c1-74.778 2-151.556 3-226.333l4.334-7.667zM849.333 82.667v26.674h89.022v249.327h-194.04V79.997c33.34.89 71.679 1.78 105.018 2.67z" /><circle class="st1" cx="886" cy="729" r="17.5" /><path class="st2" d="M888.5 736h-3.4v-13l-4 1.3v-2.8l7.1-2.5h.4v17h-.1z" /><path class="st1" d="M888.6 534.5c-9.665 0-17.5-7.835-17.5-17.5s7.835-17.5 17.5-17.5 17.5 7.835 17.5 17.5-7.835 17.5-17.5 17.5" /><path class="st2" d="M894.6 524h-11.7v-2.3l5.5-5.9c.8-.8 1.3-1.6 1.7-2.2s.5-1.2.5-1.8c0-.8-.2-1.4-.6-1.8s-.9-.7-1.6-.7c-.8 0-1.4.3-1.8.8s-.7 1.2-.7 2.1h-3.4c0-1 .2-2 .7-2.8s1.2-1.5 2.1-2 1.9-.7 3.1-.7c1.8 0 3.1.4 4.1 1.3s1.5 2 1.5 3.6c0 .8-.2 1.7-.7 2.6s-1.2 1.9-2.3 3.1l-3.9 4.1h7.3v2.6h.2z" /><circle class="st1" cx="710.45" cy="135" r="17.5" /><path class="st2" d="M707.95 132h1.8c.9 0 1.5-.2 1.9-.6.4-.4.6-1 .6-1.7s-.2-1.2-.6-1.6c-.4-.4-1-.6-1.7-.6-.6 0-1.2.2-1.6.5s-.7.8-.7 1.4h-3.4c0-.9.2-1.7.7-2.4.5-.7 1.2-1.3 2-1.7s1.8-.6 2.9-.6c1.8 0 3.2.4 4.2 1.3s1.5 2.1 1.5 3.6c0 .8-.2 1.5-.7 2.2s-1.1 1.2-1.9 1.5c1 .3 1.7.9 2.2 1.5.5.6.7 1.5.7 2.4 0 1.5-.6 2.7-1.7 3.6-1.1.9-2.6 1.4-4.4 1.4-1.7 0-3.1-.4-4.2-1.3s-1.6-2.1-1.6-3.6h3.4c0 .6.2 1.2.7 1.6.5.4 1.1.6 1.8.6.8 0 1.4-.2 1.9-.6.5-.4.7-1 .7-1.7 0-1.7-.9-2.6-2.8-2.6h-1.8V132h.1z" /><circle class="st1" cx="900" cy="136.5" r="17.5" /><path class="st2" d="M904.1 137.1h1.9v2.7h-1.9v3.7h-3.4v-3.7h-7l-.2-2.1 7.1-11.2h3.4v10.6h.1zm-7.2 0h3.8v-6l-.2.4-3.6 5.6z" /></symbol><symbol viewBox="0 0 512 512" id="gas-station"><style>#gas-station .st0{stroke:#000;stroke-width:11;stroke-miterlimit:10}</style><path class="st0" d="M314 80.9H145.3c-5.2 0-9.4 4.2-9.4 9.4v121.8c0 5.2 4.2 9.4 9.4 9.4H314c5.2 0 9.4-4.2 9.4-9.4V90.2c0-5.1-4.2-9.3-9.4-9.3zm-9.4 121.8h-150V99.6h150v103.1zM397.4 478.3H78.8c-5.2 0-9.4 4.2-9.4 9.4s4.2 9.4 9.4 9.4h318.6c5.2 0 9.4-4.2 9.4-9.4s-4.2-9.4-9.4-9.4z" /><path class="st0" d="M458.8 143.7l-28.7-33.1c-1.1-1.3-2.7-2.1-4.4-2-10.2.2-13.3 10.2-8.4 15.8l27.3 31.5c6.4 7.3 10 11.8 10 18.6h-26.2c-6.2 0-11.2 5.1-11.2 11.2v45c0 10.3 8.4 18.7 18.7 18.7h18.7V390c0 5.2-4.2 9.4-9.4 9.4h-20.7c-5.4 0-7.4-5.1-7.4-9.4V267.8c0-16.5-15.6-27.6-30.1-27.6h-16.8V80.9c0-25.9-21-46.9-46.9-46.9H135.9C110 34 89 55 89 80.9v364.8c0 9.5 7.6 9.6 20.2 9.8 6.8.1 16.3.2 26.6.2h187.4c10.4 0 19.8-.1 26.6-.2 12.7-.2 20.2-.4 20.2-9.8V258.9h17c5.7 0 11.3 4.4 11.3 8.9v122.3c0 16 11.2 28.1 26.1 28.1h20.7c15.6 0 28.1-12.6 28.1-28.1V174.6c.1-14.1-7.6-23-14.4-30.9zM351.5 436.8c-6.2.1-15.7.2-28.1.2H135.9c-12.5 0-21.9-.1-28.1-.2V80.9c0-15.6 12.6-28.1 28.1-28.1h187.4c15.6 0 28.1 12.6 28.1 28.1v355.9zm103.1-206h-18.7v-37.5h18.7v37.5z" /></symbol><symbol viewBox="-76 167.8 458.2 293.2" id="googleplus"><path d="M84.8 344.6h71.6c-12.6 35.5-46.6 61-86.4 60.7-48.3-.4-88.3-39-90.2-87.3-2-51.8 39.5-94.6 90.9-94.6 23.5 0 44.9 8.9 61.1 23.6 3.8 3.5 9.6 3.5 13.4 0l26.3-24.7a9.85 9.85 0 000-14.3c-25.6-24.3-60-39.4-97.9-40.1-80.8-1.6-149 64.7-149.5 145.5C-76.6 394.8-10.7 461 70.6 461c78.2 0 142.1-61.2 146.4-138.4.1-1 .2-33.6.2-33.6H84.8c-5.4 0-9.8 4.4-9.8 9.8v36c0 5.4 4.4 9.8 9.8 9.8zM338.5 292.2V257c0-4.8-3.9-8.6-8.6-8.6h-29.6c-4.8 0-8.6 3.9-8.6 8.6v35.2h-35.2c-4.8 0-8.6 3.9-8.6 8.6v29.6c0 4.8 3.9 8.6 8.6 8.6h35.2v35.2c0 4.8 3.9 8.6 8.6 8.6h29.6c4.8 0 8.6-3.9 8.6-8.6V339h35.2c4.8 0 8.6-3.9 8.6-8.6v-29.6c0-4.8-3.9-8.6-8.6-8.6h-35.2z" /></symbol><symbol viewBox="0 0 170 168" id="gorodskoy-mini"><style>#gorodskoy-mini .st0{fill:none;stroke:#000;stroke-miterlimit:10}#gorodskoy-mini .st1{fill:#333}</style><path class="st0" d="M22.51 61.608h36.556v-19.97c-1.528.11-3.71.11-6.33 0-2.618-.108-3.819-.218-5.237-.545-4.147-.982-4.584-3.165-9.822-5.456-2.4-1.091-3.71-1.637-5.456-1.637-4.692 0-8.62 4.147-9.821 5.784.11 7.31.11 14.513.11 21.824zM22.51 85.288h36.665V74.594h2.51v-12.33H22.618c0 7.638 0 15.386-.109 23.024zM22.618 111.805h35.793V86.27H22.509c0 8.512.11 17.024.11 25.535zM22.509 112.242h35.902v23.134H22.509zM105.225 111.805h36.557v23.571h-36.557zM105.225 88.889h36.557v22.916h-36.557zM103.26 64.555v12.003h2.402v10.913H142V64.555h-38.74zM82.31 88.999v47.032h21.824V93.473H90.93v-3.82c-2.946-.218-5.784-.436-8.62-.654zM81.218 88.999v47.032H59.393V93.473h13.204v-3.82c2.837-.218 5.675-.436 8.62-.654z" /><path class="st1" d="M41.824 51.242c-.655.654-1.419.982-2.292.982-1.09 0-1.964-.328-2.618-1.092-.655-.763-.983-1.746-.983-3.055 0-.764.219-1.528.546-2.292.327-.654.873-1.2 1.528-1.636.654-.328 1.31-.546 2.182-.546.873 0 1.528.218 2.183.655s1.09.982 1.527 1.746c.328.764.546 1.637.546 2.619v.873c0 2.073-.546 3.71-1.528 4.91-.982 1.2-2.51 1.855-4.365 1.855h-.654v-2.073h.545c2.074 0 3.274-1.091 3.383-2.946zm-1.637-.983c.437 0 .764-.109.982-.327.328-.218.546-.436.655-.764v-.982c0-.873-.109-1.528-.436-1.964s-.764-.655-1.31-.655-.873.218-1.2.655c-.328.436-.437.982-.437 1.746 0 .655.11 1.2.437 1.637.327.436.764.654 1.31.654zM44.225 70.884c0 .655-.11 1.091-.437 1.637-.327.436-.764.873-1.2 1.091.655.327 1.091.655 1.419 1.2.327.546.545 1.092.545 1.746 0 1.092-.327 1.965-1.091 2.62-.764.654-1.746.981-3.056.981s-2.291-.327-3.055-.982c-.764-.654-1.091-1.527-1.091-2.619 0-.654.218-1.31.545-1.746.328-.545.873-.873 1.419-1.2-.546-.327-.982-.655-1.2-1.091-.328-.437-.437-.982-.437-1.637 0-1.091.328-1.855 1.091-2.51.655-.655 1.637-.982 2.838-.982s2.182.327 2.837.982c.655.655.873 1.419.873 2.51zm-2.292 5.565c0-.545-.109-.982-.436-1.31-.328-.327-.764-.436-1.31-.436-.545 0-.982.11-1.2.437-.328.327-.437.764-.437 1.31 0 .545.11.981.437 1.309.327.327.764.436 1.31.436s.981-.109 1.309-.436c.218-.328.327-.764.327-1.31zm-.218-5.456c0-.436-.11-.873-.437-1.2-.218-.328-.654-.437-1.09-.437-.437 0-.874.11-1.092.437-.218.327-.437.654-.437 1.2 0 .546.11.873.437 1.2.218.328.655.437 1.091.437.437 0 .873-.11 1.091-.437.328-.327.437-.654.437-1.2zM44.552 94.782l-4.801 11.022h-2.62l4.802-10.476h-6.22v-1.965h8.73v1.42h.11zM65.722 115.952l.764-6.329h6.984v2.073h-4.91l-.328 2.62c.546-.328 1.2-.437 1.855-.437 1.2 0 2.074.327 2.728 1.091.655.764.982 1.746.982 3.056 0 .763-.218 1.527-.545 2.182-.328.655-.873 1.091-1.419 1.528-.545.436-1.418.545-2.182.545s-1.419-.109-2.074-.436c-.654-.327-1.2-.764-1.527-1.31-.328-.545-.546-1.2-.546-1.855h2.4c0 .546.219.873.546 1.2.328.328.764.437 1.2.437.546 0 .983-.218 1.31-.655.328-.436.437-.982.437-1.746 0-.654-.219-1.2-.546-1.636-.327-.328-.873-.546-1.528-.546-.545 0-1.09.11-1.418.436l-.219.219-1.964-.437zM42.806 118.353v2.073h-.218a4.525 4.525 0 00-2.728.873c-.655.546-1.091 1.31-1.2 2.292.654-.655 1.527-.982 2.51-.982 1.09 0 1.964.436 2.618 1.2.655.764.982 1.746.982 3.056 0 .763-.218 1.527-.545 2.182-.328.655-.873 1.2-1.528 1.528s-1.31.545-2.182.545c-1.31 0-2.401-.436-3.165-1.418-.764-.873-1.2-2.074-1.2-3.601v-.873c0-1.31.218-2.51.764-3.601.545-.982 1.2-1.855 2.182-2.401.982-.546 2.073-.873 3.274-.873h.436zm-2.4 6.22c-.437 0-.764.11-1.092.327-.327.219-.545.437-.764.873v.764c0 .873.11 1.419.437 1.964.327.437.764.655 1.418.655.546 0 .983-.218 1.31-.655.327-.436.436-.982.436-1.636 0-.655-.218-1.2-.545-1.637-.218-.437-.655-.655-1.2-.655zM96.495 117.37h1.419v1.965h-1.419v2.728h-2.51v-2.728h-5.128l-.11-1.528 5.13-8.184h2.51v7.748h.108zm-5.238 0h2.728v-4.364l-.109.327-2.619 4.038zM125.522 82.342h-2.51v-9.494l-2.946.873v-1.964l5.129-1.855h.218v12.44h.11zM128.032 105.804h-8.512v-1.637l4.038-4.256c.546-.655.982-1.091 1.2-1.528.219-.436.437-.873.437-1.31 0-.545-.11-.981-.437-1.309-.327-.327-.654-.436-1.2-.436-.546 0-.982.218-1.31.545-.327.328-.436.873-.436 1.528h-2.51c0-.764.218-1.419.546-2.073.327-.655.873-1.091 1.528-1.419a5.072 5.072 0 012.291-.545c1.31 0 2.292.327 2.946.873.655.545 1.092 1.527 1.092 2.618 0 .655-.11 1.2-.437 1.856-.327.654-.873 1.418-1.637 2.182l-2.837 2.946h5.347v1.965h-.109zM122.03 122.936h1.31c.655 0 1.091-.109 1.418-.436s.437-.764.437-1.2c0-.546-.11-.874-.437-1.201-.327-.327-.654-.437-1.2-.437-.436 0-.873.11-1.2.437-.328.327-.437.546-.437.982h-2.51c0-.655.219-1.2.546-1.746.327-.546.873-.873 1.419-1.2.545-.328 1.309-.437 2.073-.437 1.31 0 2.292.328 3.055.982.764.655 1.092 1.528 1.092 2.62 0 .545-.219 1.09-.546 1.527-.327.437-.764.873-1.419 1.091.655.219 1.2.655 1.528 1.091.327.437.546 1.092.546 1.746 0 1.092-.437 1.965-1.2 2.62-.765.654-1.856.982-3.165.982-1.2 0-2.292-.328-3.056-.983-.764-.654-1.2-1.527-1.2-2.619h2.51c0 .437.218.873.545 1.092.328.218.764.436 1.31.436.545 0 1.091-.109 1.418-.436.328-.328.546-.764.546-1.2 0-1.201-.655-1.856-2.073-1.856h-1.31v-1.855z" /></symbol><symbol viewBox="0 0 332 332" id="hospital"><path d="M167.5 17C84.5 17 17 84.5 17 167.5S84.5 318 167.5 318 318 250.5 318 167.5 250.5 17 167.5 17zm0 287.9c-75.8 0-137.4-61.7-137.4-137.4S91.7 30.1 167.5 30.1s137.4 61.7 137.4 137.4-61.6 137.4-137.4 137.4z" stroke="#000" stroke-width="24" stroke-miterlimit="10" /><path d="M245.8 134.9h-45.7V89.2c0-3.6-2.9-6.5-6.5-6.5h-52.2c-3.6 0-6.5 2.9-6.5 6.5v45.7H89.2c-3.6 0-6.5 2.9-6.5 6.5v52.2c0 3.6 2.9 6.5 6.5 6.5h45.7v45.7c0 3.6 2.9 6.5 6.5 6.5h52.2c3.6 0 6.5-2.9 6.5-6.5v-45.7h45.7c3.6 0 6.5-2.9 6.5-6.5v-52.2c-.3-3.6-3.2-6.5-6.5-6.5zm-6.1 52.2h-46.1c-3.6 0-6.5 2.9-6.5 6.5v45.7h-39.2v-45.7c0-3.6-2.9-6.5-6.5-6.5H95.7v-39.2h45.7c3.6 0 6.5-2.9 6.5-6.5V95.7h39.5v45.7c0 3.6 2.9 6.5 6.5 6.5h45.7v39.2z" stroke="#000" stroke-width="8" stroke-miterlimit="10" /></symbol><symbol viewBox="0 0 486.196 486.196" id="house"><path d="M481.708 220.456l-228.8-204.6c-.4-.4-.8-.7-1.3-1-5-4.8-13-5-18.3-.3l-228.8 204.6c-5.6 5-6 13.5-1.1 19.1 2.7 3 6.4 4.5 10.1 4.5 3.2 0 6.4-1.1 9-3.4l41.2-36.9v238.6c0 18.7 15.2 34 34 34H169.908c17.6 0 31.9-14.3 31.9-31.9v-121.3c0-2.7 2.2-4.9 4.9-4.9h72.9c2.7 0 4.9 2.2 4.9 4.9v121.3c0 17.6 14.3 31.9 31.9 31.9h72.2c19 0 34-18.7 34-42.6v-228.7l41.2 36.9c2.6 2.3 5.8 3.4 9 3.4 3.7 0 7.4-1.5 10.1-4.5 4.8-5.6 4.3-14.1-1.2-19.1zm-86.2 66.7v145.1c0 9.7-4.8 15.6-7 15.6h-72.2c-2.7 0-4.9-2.2-4.9-4.9v-121.1c0-17.6-14.3-31.9-31.9-31.9h-72.9c-17.6 0-31.9 14.3-31.9 31.9v121.3c0 2.7-2.2 4.9-4.9 4.9H97.608c-3.8 0-7-3.1-7-7v-262.8l151.8-135.6 153.1 136.9v107.6z" /></symbol><symbol viewBox="0 0 57 21" id="icon-wezom"><path d="M31.2 1.1C30.5.4 29.5 0 28.5 0c-1 0-2 .4-2.7 1.2l-9.6 10.2L6.5 1.1C5-.4 2.6-.4 1.1 1.1c-1.5 1.6-1.5 4.1 0 5.6l12.3 13c.7.8 1.7 1.2 2.7 1.2 1 0 1.9-.4 2.7-1.2l9.6-10.2L38 19.7c.7.8 1.7 1.2 2.7 1.2 1 0 1.9-.4 2.7-1.2l12.3-13c1.5-1.6 1.5-4.1 0-5.6-1.5-1.6-3.9-1.6-5.4 0l-9.7 10.2-9.4-10.2z" /></symbol><symbol viewBox="0 0 73.2 68.5" id="infrastructure"><style>#infrastructure .st0,#infrastructure .st1{fill:none;stroke:#ff9f10;stroke-width:3;stroke-miterlimit:10}#infrastructure .st1{stroke-width:4}#infrastructure .st2,#infrastructure .st3{fill:#ff9f10}#infrastructure .st3{stroke:#ff9f10;stroke-width:3;stroke-miterlimit:10}</style><path class="st0" d="M6.5 59c1.4 0 4.4-1 4.4-4.1 0-1.1-.4-2.1-1.1-2.8.2-.4.3-.9.3-1.3 0-1.8-1.5-3.3-3.3-3.3S3.5 49 3.5 50.8c0 .5.1.9.3 1.3-.7.8-1.1 1.8-1.1 2.8-.1 2 2.1 4.1 3.8 4.1M66.2 59c1.4 0 4.4-1 4.4-4.1 0-1.1-.4-2.1-1.1-2.8.2-.4.3-.9.3-1.3 0-1.8-1.5-3.3-3.3-3.3s-3.3 1.5-3.3 3.3c0 .5.1.9.3 1.3-.7.8-1.1 1.8-1.1 2.8-.2 2 2 4.1 3.8 4.1" /><circle class="st1" cx="36.4" cy="32.2" r="19.6" /><circle class="st1" cx="36.5" cy="32" r="2" /><path class="st1" d="M40 12.9c.9-.9 1.4-2.1 1.4-3.5 0-2.7-2.2-4.9-4.9-4.9s-4.9 2.2-4.9 4.9c0 1.3.5 2.6 1.4 3.5M52.5 21h.1c2.7 0 4.9-2.2 4.9-4.9s-2.2-4.9-4.9-4.9-4.9 2.2-4.9 4.9v.1M55.6 35.5l.1.1c1.9 1.9 5.1 1.9 7 0 1.9-1.9 1.9-5.1 0-7s-5.1-1.9-7 0l-.1.1M33.1 51.4l-.1.1c-1.9 1.9-1.9 5.1 0 7s5.1 1.9 7 0 1.9-5.1 0-7l-.1-.1M25.1 16.1V16c0-2.7-2.2-4.9-4.9-4.9s-4.9 2.2-4.9 4.9 2.2 4.9 4.9 4.9h.1M17.3 28.8l-.1-.1c-1.9-1.9-5.1-1.9-7 0s-1.9 5.1 0 7 5.1 1.9 7 0l.1-.1M20.6 43.4h-.1c-2.7 0-4.9 2.2-4.9 4.9s2.2 4.9 4.9 4.9 4.9-2.2 4.9-4.9v-.1M47.7 48v.1c0 2.7 2.2 4.9 4.9 4.9s4.9-2.2 4.9-4.9-2.2-4.9-4.9-4.9h-.1" /><path class="st2" d="M31.9 8.3h9.2v1.3h-9.2z" /><path class="st3" d="M3.5 63.6h65.8v1.3H3.5z" /><path class="st2" d="M9 32.2h8v1.3H9zM55.9 32.8h8v1.3h-8zM48.5 48.8h8.7v1.3h-8.7zM32 55.6h8.7v1.3H32zM15.9 48.8h8.8v1.3h-8.8z" /><path class="st3" d="M6.1 59h1.3v5.6H6.1zM65.7 59H67v5.3h-1.3z" /><path class="st2" d="M15.5 15.6h7.9v1.3h-7.9zM48.5 16.2h8v1.3h-8z" /><path class="st1" d="M36.7 34.1l8.9 18.2 5.8 11.9H21.7l5.7-11.8 8.9-18.3" /></symbol><symbol viewBox="0 0 89 93.5" id="infrastruktura"><style>#infrastruktura .st0,#infrastruktura .st1{fill:none;stroke:#ff9f10;stroke-width:4;stroke-miterlimit:10}#infrastruktura .st1{stroke-width:3}</style><path class="st0" d="M74.5 55.2c-2.9-3.4-10.1-13.8-10.1-22 0-6.4 4.1-10.3 10.6-10.3 4.7 0 10.3 2.7 10.3 10.3 0 7.3-6.4 17-10.8 22z" /><path class="st1" d="M74.9 29.7c-2 0-3.7 1.7-3.7 3.7s1.7 3.7 3.7 3.7 3.7-1.7 3.7-3.7-1.7-3.7-3.7-3.7z" /><path class="st0" d="M18.5 44.2c-2.9-3.4-10.1-13.8-10.1-22 0-6.4 4.1-10.3 10.6-10.3 4.7 0 10.3 2.7 10.3 10.3 0 7.3-6.4 17-10.8 22z" /><path class="st1" d="M18.9 18.7c-2 0-3.7 1.7-3.7 3.7s1.7 3.7 3.7 3.7 3.7-1.7 3.7-3.7-1.7-3.7-3.7-3.7z" /><path class="st0" d="M29.5 21v20.8L7.2 60.5C6 57 5.3 53.1 5.3 49.2c0-6.7 1.7-12.9 4.8-18.1m19.2 57c-3.7-.8-7.1-2.6-9.8-5.1l9.8-7.3v12.4zm14.5-70.7c1.5.1 3 .3 4.5.6V89.6c-1.5.3-3 .5-4.5.6l-2.4.1c-1.4 0-2.9-.1-4.3-.3V63.6v-.2-.2-.2s0-.1-.1-.2c0 0-.1-.1-.1-.2 0 0-.1-.1-.1-.2 0 0 0-.1-.1-.1l-.1-.1-.1-.1s-.1-.1-.2-.1l-.1-.1c-.1 0-.1 0-.2-.1H35.4h-.1-.5-.2c-.1 0-.1 0-.2.1 0 0-.1 0-.1.1 0 0-.1.1-.2.1H34L14.3 77.8c-2.1-2.4-3.9-5.1-5.3-8.1l27.4-21.5.1-.1.1-.1.1-.1.1-.1c0-.1.1-.1.1-.2 0 0 0-.1.1-.2 0 0 0-.1.1-.2V47 17.6c1.4-.2 2.8-.2 4.3-.2h2.4zm36.3 29.9c3.3 15.6-5.4 36.4-23.2 40.5V19.9c3.9 1.3 7.6 3.3 10.8 6" /></symbol><symbol viewBox="0 0 89 93.5" id="infrastruktura-new"><style>#infrastruktura-new .st0,#infrastruktura-new .st1{fill:none;stroke:#ff9f10;stroke-width:4;stroke-miterlimit:10}#infrastruktura-new .st1{stroke-width:3}</style><path class="st0" d="M75.5 49.2c-2.9-3.4-10.1-13.8-10.1-22 0-6.4 4.1-10.3 10.6-10.3 4.7 0 10.3 2.7 10.3 10.3 0 7.3-6.4 17-10.8 22z" /><path class="st1" d="M75.9 23.7c-2 0-3.7 1.7-3.7 3.7s1.7 3.7 3.7 3.7 3.7-1.7 3.7-3.7-1.7-3.7-3.7-3.7z" /><path class="st0" d="M19.5 38.2c-2.9-3.4-10.1-13.8-10.1-22C9.4 9.8 13.5 5.9 20 5.9c4.7 0 10.3 2.7 10.3 10.3 0 7.3-6.4 17-10.8 22z" /><path class="st1" d="M19.9 12.7c-2 0-3.7 1.7-3.7 3.7s1.7 3.7 3.7 3.7 3.7-1.7 3.7-3.7-1.7-3.7-3.7-3.7z" /><path class="st0" d="M30.5 15v20.8L8.2 54.5C7 51 6.3 47.1 6.3 43.2c0-6.7 1.7-12.9 4.8-18.1m19.2 57c-3.7-.8-7.1-2.6-9.8-5.1l9.8-7.3v12.4zm14.5-70.7c1.5.1 3 .3 4.5.6V83.6c-1.5.3-3 .5-4.5.6l-2.4.1c-1.4 0-2.9-.1-4.3-.3V57.6v-.2-.2-.2s0-.1-.1-.2c0 0-.1-.1-.1-.2 0 0-.1-.1-.1-.2 0 0 0-.1-.1-.1l-.1-.1-.1-.1s-.1-.1-.2-.1l-.1-.1c-.1 0-.1 0-.2-.1H36.3h-.5-.2c-.1 0-.1 0-.2.1 0 0-.1 0-.1.1 0 0-.1.1-.2.1H35L15.3 71.8c-2.1-2.4-3.9-5.1-5.3-8.1l27.4-21.5.1-.1.1-.1.1-.1.1-.1c0-.1.1-.1.1-.2 0 0 0-.1.1-.2 0 0 0-.1.1-.2V41 11.6c1.4-.2 2.8-.2 4.3-.2h2.4zm36.3 29.9c3.3 15.6-5.4 36.4-23.2 40.5V13.9c3.9 1.3 7.6 3.3 10.8 6" /></symbol><symbol viewBox="0 0 512 512" id="instagram"><path d="M373.659 0H138.341C62.06 0 0 62.06 0 138.341v235.318C0 449.94 62.06 512 138.341 512h235.318C449.94 512 512 449.94 512 373.659V138.341C512 62.06 449.94 0 373.659 0zm96.977 373.659c0 53.473-43.503 96.977-96.977 96.977H138.341c-53.473 0-96.977-43.503-96.977-96.977V138.341c0-53.473 43.503-96.977 96.977-96.977h235.318c53.473 0 96.977 43.503 96.977 96.977v235.318z" /><path d="M370.586 238.141c-3.64-24.547-14.839-46.795-32.386-64.342-17.547-17.546-39.795-28.746-64.341-32.385a114.73 114.73 0 00-33.682 0c-30.336 4.499-57.103 20.541-75.372 45.172-18.269 24.631-25.854 54.903-21.355 85.237 4.499 30.335 20.541 57.102 45.172 75.372 19.996 14.831 43.706 22.619 68.153 22.619 5.667 0 11.375-.418 17.083-1.265 30.336-4.499 57.103-20.541 75.372-45.172 18.27-24.63 25.855-54.901 21.356-85.236zm-102.795 89.491c-19.405 2.882-38.77-1.973-54.527-13.66-15.757-11.687-26.019-28.811-28.896-48.216-2.878-19.405 1.973-38.77 13.66-54.527 11.688-15.757 28.811-26.019 48.217-28.897a73.42 73.42 0 0121.545.001c32.231 4.779 57.098 29.645 61.878 61.877 5.94 40.058-21.817 77.482-61.877 83.422zM400.049 111.951a20.83 20.83 0 00-14.625-6.058 20.826 20.826 0 00-14.625 6.058 20.814 20.814 0 00-6.058 14.625 20.814 20.814 0 006.058 14.625 20.83 20.83 0 0014.625 6.058 20.826 20.826 0 0014.625-6.058 20.83 20.83 0 006.058-14.625 20.826 20.826 0 00-6.058-14.625z" /></symbol><symbol viewBox="0 0 1920 954" id="jk2-svg"><style>#jk2-svg .st0{fill:none;stroke:#000;stroke-miterlimit:10}#jk2-svg .st1{fill:#fdcf41}#jk2-svg .st2{fill:#fff}</style><path class="st0" d="M1161.5 498.5H1372V670h-210.5zM1161.5 686H1372v171.5h-210.5zM1155.5 313H1372v171.5h-216.5zM976 519h162.667v326.667H976zM800 519h162.667v326.667H800zM576 285h202.667v170.667H576zM576 471h202.667v199H576zM576 686h202.667v168.333H576z" /><path id="jk2-svg__x39_" class="st0" d="M790 268l1-135c-14.863 2.657-33.635 4.287-55 2-56.071-6.002-94.93-35.228-112-50-4.952-3.717-12.854-8.29-23-9-19.503-1.366-39.243 12.102-50 34l-19 14v156h257l1-12z" /><circle class="st1" cx="1112.678" cy="546.698" r="17.5" /><circle class="st1" cx="1340.523" cy="715.205" r="17.5" /><circle class="st1" cx="1340.57" cy="529.198" r="17.5" /><circle class="st1" cx="749.998" cy="498.5" r="17.5" /><circle class="st1" cx="1345.996" cy="337.748" r="17.5" /><circle class="st1" cx="751.875" cy="313" r="17.5" /><circle class="st1" cx="931.459" cy="546.698" r="17.5" /><circle class="st1" cx="749.998" cy="709.667" r="17.5" /><path class="st2" d="M1338.454 713.705h1.805c.86 0 1.496-.214 1.91-.644s.621-1 .621-1.711c0-.688-.205-1.223-.615-1.605s-.974-.575-1.693-.575c-.649 0-1.192.178-1.63.533s-.655.819-.655 1.39h-3.387c0-.891.24-1.69.72-2.397s1.153-1.26 2.016-1.659 1.815-.597 2.854-.597c1.804 0 3.219.431 4.242 1.295s1.535 2.052 1.535 3.568c0 .781-.238 1.5-.715 2.156s-1.101 1.16-1.875 1.512c.961.344 1.678.86 2.15 1.547s.71 1.5.71 2.437c0 1.516-.553 2.73-1.659 3.645s-2.568 1.371-4.388 1.371c-1.703 0-3.096-.45-4.178-1.348s-1.623-2.086-1.623-3.562h3.387c0 .64.24 1.164.72 1.57s1.073.61 1.776.61c.804 0 1.435-.213 1.892-.64s.686-.99.686-1.692c0-1.704-.938-2.555-2.813-2.555h-1.793v-2.649zM1116.98 548.808h1.933v2.73h-1.934v3.692h-3.386v-3.692h-6.997l-.152-2.133 7.113-11.238h3.422v10.64zm-7.16 0h3.773v-6.024l-.223.387-3.55 5.637zM926.121 546.722l.985-8.672h9.562v2.824h-6.785l-.422 3.668a5.37 5.37 0 012.566-.644c1.625 0 2.899.504 3.82 1.511s1.384 2.418 1.384 4.23c0 1.102-.233 2.089-.698 2.96s-1.13 1.547-1.998 2.027-1.89.72-3.07.72c-1.031 0-1.988-.208-2.871-.626s-1.58-1.006-2.092-1.764-.783-1.62-.814-2.59h3.351c.07.711.319 1.264.744 1.659s.983.591 1.67.591c.766 0 1.356-.275 1.77-.826s.62-1.33.62-2.338c0-.968-.237-1.71-.714-2.226s-1.152-.774-2.027-.774c-.805 0-1.457.211-1.957.633l-.328.305-2.696-.668zM753.297 700.93v2.79h-.328c-1.531.023-2.764.421-3.697 1.195s-1.495 1.847-1.682 3.222c.906-.921 2.05-1.382 3.434-1.382 1.484 0 2.664.53 3.539 1.593s1.312 2.461 1.312 4.196c0 1.109-.24 2.113-.72 3.011s-1.16 1.598-2.04 2.098-1.873.75-2.982.75c-1.797 0-3.248-.625-4.354-1.875s-1.658-2.918-1.658-5.004v-1.219c0-1.851.35-3.486 1.049-4.904s1.703-2.516 3.012-3.293 2.826-1.17 4.552-1.178h.563zm-3.305 8.555a2.71 2.71 0 00-1.488.427 2.573 2.573 0 00-.984 1.129v1.029c0 1.13.222 2.014.668 2.65.445.635 1.07.953 1.875.953.726 0 1.314-.287 1.763-.86.45-.573.674-1.316.674-2.228 0-.928-.226-1.677-.68-2.246-.453-.57-1.062-.854-1.828-.854zM1349.71 346.291h-3.386v-13.055l-4.043 1.254v-2.754l7.066-2.53h.364v17.085zM1346.587 537.847h-11.695v-2.32l5.52-5.883c.757-.828 1.318-1.551 1.681-2.168s.545-1.203.545-1.758c0-.758-.191-1.354-.574-1.787s-.93-.65-1.64-.65c-.766 0-1.37.263-1.811.79s-.662 1.221-.662 2.08h-3.399c0-1.039.248-1.988.744-2.847s1.198-1.533 2.104-2.022 1.933-.732 3.082-.732c1.758 0 3.123.422 4.096 1.266s1.459 2.035 1.459 3.574c0 .844-.22 1.703-.657 2.578s-1.187 1.894-2.25 3.059l-3.879 4.09h7.336v2.73zM756.022 491.86l-6.598 15.171h-3.574l6.61-14.332h-8.485v-2.73h12.047v1.89zM757.277 309.004c0 .828-.207 1.562-.62 2.203s-.985 1.152-1.712 1.535c.828.399 1.485.947 1.97 1.647s.726 1.521.726 2.466c0 1.516-.516 2.713-1.547 3.592s-2.434 1.319-4.207 1.319-3.18-.442-4.219-1.325-1.559-2.078-1.559-3.586c0-.945.243-1.77.727-2.472s1.137-1.25 1.957-1.64c-.727-.384-1.295-.895-1.705-1.536s-.615-1.375-.615-2.203c0-1.453.484-2.611 1.453-3.475s2.285-1.295 3.949-1.295c1.656 0 2.97.428 3.943 1.284s1.46 2.017 1.46 3.486zm-3.035 7.605c0-.742-.215-1.336-.644-1.78s-1.008-.669-1.735-.669c-.718 0-1.293.22-1.722.662s-.645 1.037-.645 1.787c0 .727.211 1.313.633 1.758s1.008.668 1.758.668c.734 0 1.31-.215 1.728-.644s.627-1.024.627-1.782zm-.351-7.441c0-.664-.176-1.197-.528-1.6s-.847-.603-1.488-.603c-.633 0-1.125.195-1.477.586s-.527.93-.527 1.617c0 .68.176 1.227.527 1.64s.848.622 1.489.622 1.134-.207 1.482-.621.522-.961.522-1.641z" /><circle class="st1" cx="755.875" cy="165" r="17.5" /><path class="st2" d="M758.158 166.15c-.852.766-1.805 1.149-2.86 1.149-1.547 0-2.773-.524-3.68-1.57s-1.359-2.446-1.359-4.196c0-1.094.254-2.11.762-3.047s1.22-1.68 2.139-2.226 1.931-.82 3.04-.82c1.126 0 2.143.283 3.053.85s1.62 1.366 2.127 2.401.77 2.229.786 3.58v1.512c0 1.883-.37 3.516-1.108 4.899s-1.79 2.445-3.158 3.187-2.961 1.113-4.781 1.113h-.246v-3.164l.75-.011c2.718-.133 4.23-1.352 4.535-3.657zm-1.793-1.699c.86 0 1.476-.37 1.851-1.113v-1.64c0-1.094-.183-1.903-.55-2.427s-.864-.785-1.489-.785c-.554 0-1.02.297-1.394.891s-.563 1.312-.563 2.156c0 .89.192 1.6.574 2.127.383.528.907.791 1.57.791z" /></symbol><symbol viewBox="0 0 104 100.3" id="kirpichi"><style>#kirpichi .st0{fill:none;stroke:#ff9f10;stroke-width:4;stroke-miterlimit:10}</style><path class="st0" d="M39.5 18h25.4V6.4H39.5V18zM6.8 18h25.4V6.4H6.8V18zM72.2 18h25.4V6.4H72.2V18zM6.6 25.2h32.1v11.6H6.6V25.2zM46.5 25.2h32.3v11.6H46.5V25.2zM86 25.2h11.6v11.6H86V25.2zM6.8 55.7h25.4V44.1H6.8v11.6zM39.5 55.7h25.4V44.1H39.5v11.6zM72.2 55.7h25.4V44.1H72.2v11.6zM6.6 63h32.1v11.6H6.6V63zM46.5 63h32.3v11.6H46.5V63zM86 63h11.6v11.6H86V63zM6.8 93.4h25.4V81.8H6.8v11.6zM39.5 93.4h25.4V81.8H39.5v11.6zM72.2 93.4h25.4V81.8H72.2v11.6z" /></symbol><symbol viewBox="0 0 42 44.3" id="kolyaska"><style>#kolyaska .st0{fill:none;stroke:#ff9f10;stroke-width:4;stroke-miterlimit:10}#kolyaska .st1{fill:#ff9f10}</style><circle class="st0" cx="31.7" cy="38.6" r="2.9" /><circle class="st0" cx="13.1" cy="38.6" r="2.9" /><path class="st0" d="M7.1 21.7c-.2 0-.4.2-.3.4C8.7 27.1 16 33 22.4 33c5.9 0 13.2-5.9 15.6-10.8.1-.2-.1-.4-.3-.4l-30.6-.1zM38.7 15c0-6.6-7.1-12-15.9-12v12h15.9z" /><path class="st1" d="M9 15.1h2.3v5.1H9z" /><path class="st1" d="M4.2 13.3h7.1v2.3H4.2z" /><circle class="st1" cx="4.1" cy="14.5" r="1.2" /></symbol><symbol viewBox="0 0 112.3 62.6" id="komfort"><path d="M101.6 16.1h-5.2v-5.9c0-3.5-2.6-6.3-5.8-6.3H60c-1.5 0-2.7.7-3.8 1.5-1.1-1-2.3-1.5-3.8-1.5H21.7c-3.2 0-5.8 2.8-5.8 6.3v5.9h-5c-3.2 0-5.8 2.8-5.8 6.3v26.1h13.3v10.4h7.1l3-10.4h55.2l3 10.2H94V48.4H107.2v-26c.2-3.5-2.4-6.3-5.6-6.3zm-39.8-5.2h27c.9 0 1.6.7 1.6 1.7V19c-1.2 1-2 2.6-2 4.4v7.1H60.2V12.6c0-1 .7-1.7 1.6-1.7zm-9.5 1.7v17.9H24.1v-7.1c0-1.7-.8-3.3-2-4.4v-6.4c0-1 .7-1.7 1.6-1.7h27c.9 0 1.6.7 1.6 1.7zM11.5 41.9V24.7c0-1 .5-1.7 1.3-1.7h3.9c.6 0 1.3.7 1.3 1.7v17.2h-6.5 0zm89.3 0h-6.5V24.7c0-1 .6-1.7 1.3-1.7h3.9c.7 0 1.3.7 1.3 1.7v17.2h0zm-76.8.4V36h64.5v6.3H24z" fill="none" stroke="#ff9f10" stroke-width="4" stroke-miterlimit="10" /></symbol><symbol viewBox="0 0 62 56.9" id="mall"><style>#mall .st1{stroke:#000;stroke-width:.5;stroke-miterlimit:10}</style><path d="M58 3H3.4c-.6 0-1 .5-1 1v48.3c0 .6.5 1 1 1h7.3c.6 0 1-.5 1-1v-3.1H19v0h2.1v0h8.4v0h2.1v0H40v0h2.1v0h7.3v3.1c0 .6.5 1 1 1H58c.6 0 1-.5 1-1V4c0-.5-.5-1-1-1zM4.4 5.1h52.5v16.8H4.4V5.1zm45.2 29.4h-7.3V24h7.3v10.5zM11.8 24h7.3v10.5h-7.3V24zm9.4 0h8.4v10.5h-8.4V24zm10.5 0h8.4v10.5h-8.4V24zm-22 27.3H4.4V24h5.2v27.3zm2.1-4.2V36.6h7.3v10.5h-7.3zm9.4 0V36.6h8.4v10.5h-8.4zm10.5 0V36.6h8.4v10.5h-8.4zm10.5 0V36.6h7.3v10.5h-7.3zm14.7 4.2h-5.2V24h5.2v27.3z" stroke="#000" stroke-width="2" stroke-miterlimit="10" /><path class="st1" d="M16.5 12.6l1.8 1.8c.2.2.4.2.6.2.2 0 .4-.1.6-.2l1.8-1.8v5.3H23V9.1h-1.6v1.3L19 12.8l-2.4-2.4V9.1H15v8.8h1.6v-5.3zM26.2 14.7h4v3.2h1.6v-8c0-.4-.4-.8-.8-.8h-5.6c-.4 0-.8.4-.8.8v8h1.6v-3.2zm0-4h4v2.4h-4v-2.4zM39.8 17.9v-1.6H35V9.1h-1.6v8.8H35zM47.1 17.9v-1.6h-4.9V9.1h-1.6v8.8h1.6z" /></symbol><symbol viewBox="0 0 512 512" id="map-marker"><path d="M256 0C150 0 64 86 64 192c0 43.2 14.2 83 38.3 115.1L256 512l153.7-204.9C433.8 275 448 235.2 448 192 448 86 362 0 256 0z" fill="#323232" /><circle cx="252" cy="196.5" r="127.8" fill="#fff" /><g><path d="M252.9 62c-75 0-135.8 60.8-135.8 135.8s60.8 135.8 135.8 135.8c75 0 135.8-60.8 135.8-135.8S327.9 62 252.9 62zm-26.8 184.9H216L204.8 226h-30.6v20.9h-26.1v-98.2h58.1c5.7 0 11 .9 15.8 2.6 2.6.9 5 2.1 7.3 3.4 8.4 5.1 14.5 13.2 16.8 23.3.7 3.1 1.1 6.3 1.1 9.7 0 8.6-2.4 16-6.6 22-2.9 4.1-6.7 7.6-11.2 10.3l6.9 12.4 4.5 8.1 3.5 6.3h-18.2zm57.9 0l-6.2-14.4H245.7l-5.6-10.1c4.2-3.6 7.6-7.9 10.1-12.6h17.5l-5.1-12.9-9.6-24.3c-3.2-10-9.6-18.3-18.2-23.9H270l18.7 44 12.8 30.2 10.2 24H284zm36.2-.4l-10-23.6h4.3c14.7 0 26.5-11 26.5-25.2s-11.7-25.4-26.5-25.4h-25.8l-10-23.6h35.5c26.3 0 52.9 20.1 52.9 49 0 26.7-22.6 46-46.9 48.8z" fill="url(#map-marker_a)" /><path d="M212.2 173.9c-2.1-.9-4.5-1.4-7.1-1.4h-30.9v29.6h31c1.3 0 2.5-.1 3.7-.3 7.2-1.2 12.1-5.9 12.1-14.1 0-3.3-.8-6.2-2.3-8.5-1.5-2.3-3.8-4.2-6.5-5.3z" fill="url(#map-marker_b)" /></g></symbol><linearGradient id="map-marker_a" gradientUnits="userSpaceOnUse" x1="252.888" y1="63.566" x2="252.888" y2="334.123"><stop offset=".004" stop-color="#fdcf41" /><stop offset="1" stop-color="#f9b90d" /></linearGradient><linearGradient id="map-marker_b" gradientUnits="userSpaceOnUse" x1="197.592" y1="63.566" x2="197.592" y2="334.123"><stop offset=".004" stop-color="#fdcf41" /><stop offset="1" stop-color="#f9b90d" /></linearGradient><symbol viewBox="0 0 512 512" id="medicine"><path d="M215.9 72c-2.4 0-4.3 1.9-4.3 4.3v7.9c0 2.4 1.9 4.3 4.3 4.3s4.3-1.9 4.3-4.3v-7.9c0-2.4-1.9-4.3-4.3-4.3zM236 72c-2.4 0-4.3 1.9-4.3 4.3v7.9c0 2.4 1.9 4.3 4.3 4.3s4.3-1.9 4.3-4.3v-7.9c0-2.4-1.9-4.3-4.3-4.3zM256.1 72c-2.4 0-4.3 1.9-4.3 4.3v7.9c0 2.4 1.9 4.3 4.3 4.3s4.3-1.9 4.3-4.3v-7.9c.1-2.4-1.9-4.3-4.3-4.3zM276.3 72c-2.4 0-4.3 1.9-4.3 4.3v7.9c0 2.4 1.9 4.3 4.3 4.3s4.3-1.9 4.3-4.3v-7.9c0-2.4-2-4.3-4.3-4.3zM296.4 72c-2.4 0-4.3 1.9-4.3 4.3v7.9c0 2.4 1.9 4.3 4.3 4.3s4.3-1.9 4.3-4.3v-7.9c0-2.4-1.9-4.3-4.3-4.3z" /><path d="M461.2 282.4c-3.7-4.3-11-7.3-18-7.4-6.7-.1-12.9 2.4-17.2 7.1l-56.7 62.6c-.7.2-1.3.4-1.9.7V166.7c0-10.2-5.4-19.7-14.2-24.9L326 125.7v-13.8h6.5c8.8 0 15.9-7.1 15.9-15.9V64.7c0-8.8-7.1-15.9-15.9-15.9H179.8c-8.8 0-15.9 7.1-15.9 15.9V96c0 8.8 7.1 15.9 15.9 15.9h6.5v13.8l-27.2 16.1c-8.7 5.2-14.2 14.7-14.2 24.9v144.1c-5.6.9-11.9 2.1-18.5 3.3-2.6.5-5.2.9-7.7 1.4-.7-6-5.8-10.8-12-10.8H59.4c-6.7 0-12.1 5.4-12.1 12.1v126.4c0 6.7 5.4 12.1 12.1 12.1h47.3c6.7 0 12.1-5.4 12.1-12.1v-2.6c26.2 4.4 75.5 13.2 101.4 20.4 5.7 1.6 11.5 2.4 17.3 2.4 6.5 0 12.9-1 19.2-2.9 9.9-3.1 21.5-6.5 33.7-10.2 36.6-10.9 78-23.3 96.6-32.5 2.5-.7 6.5-3 16.2-12.2 5.5-5.2 10.4-10.2 10.6-10.4.4-.4.7-.8.9-1.3 10.3-18.5 23-37.7 35.3-56.3 5.1-7.7 10.3-15.6 15.2-23.3 7.3-11.4 1.6-25.3-4-31.9zM106.4 442.9H59.7V317h46.7v125.9zm73.4-343.4c-2 0-3.6-1.6-3.6-3.6V64.7c0-2 1.6-3.6 3.6-3.6h152.7c2 0 3.6 1.6 3.6 3.6V96c0 2-1.6 3.6-3.6 3.6 0-.1-152.7-.1-152.7-.1zm-22.5 67.2c0-5.8 3.1-11.3 8.1-14.2l30.2-17.9c1.9-1.1 3-3.1 3-5.3V112h115v17.3c0 2.2 1.1 4.2 3 5.3l30.2 17.9c5 3 8.1 8.4 8.1 14.2v3.4H157.3v-3.4h0zm0 15.8H355v112.8H157.3V182.5h0zm0 125.1H355v17.7c-6-5.5-14.5-8.7-25.5-9.5h-.8c-21.5 1.3-50.9 3.6-68.3 6-15.2 2.1-32.6-2.7-41-4.9-.7-.2-1.3-.4-1.9-.5-.3-.1-.6-.1-.8-.2-.2-.1-.4-.2-.6-.2-21.8-7-39-9-58.8-6.9v-1.5zm297.6-.1c-4.9 7.6-10.1 15.5-15.2 23.2-12.2 18.5-24.9 37.7-35.4 56.4-7.9 8.2-17.9 17.4-20.9 18.8-.5.1-.9.3-1.4.5-17.3 8.7-58.7 21.1-95.2 32-12.3 3.7-23.9 7.1-33.9 10.2-9.6 3-19.8 3.2-29.5.5-27.1-7.5-78.9-16.6-104.7-21V327.9c3.3-.6 6.6-1.2 9.8-1.8 8.3-1.5 16.1-2.9 22.6-3.9 20.7-3.2 36.8-2 58.3 4.5.5.3 1.1.5 1.9.7.6.2 1.6.4 3 .8.6.1 1.2.3 1.8.5 9.1 2.5 28.2 7.7 45.9 5.3 17-2.3 45.7-4.6 66.9-5.9 14.5 1.1 21.6 6.7 23.5 18.5 0 .4-.2 1.6-.3 2.4-.1.3-.1.6-.2.9-25.8 5.9-54.3 9.9-81.9 13.8-11.1 1.6-22.7 3.2-33.6 4.9-1.9-.2-2-1-2-1.6-.2-3.4-3.2-6-6.6-5.7-3.4.2-6 3.2-5.7 6.6.5 7.7 6.4 12.9 14.5 13.1h.1c.3 0 .6 0 .9-.1 11-1.7 22.2-3.3 34-4.9 29.5-4.1 60-8.4 87.6-15 .1 0 .2 0 .2-.1 3.2-.7 6.3-1.8 9.2-2.9 2-.7 3.8-1.4 5.6-1.9 1.1-.3 2.1-.9 2.8-1.8l57.8-63.8c1.9-2.1 4.6-3.2 7.8-3.1 4.4.1 8 2.1 8.9 3.1 2 1.9 7.4 10.6 3.4 17z" stroke="#000" stroke-width="15" stroke-miterlimit="10" /><path d="M291 224.9h-19.2v-19.2c0-3.6-2.9-6.5-6.5-6.5h-14.4c-3.6 0-6.5 2.9-6.5 6.5v19.2h-19.2c-3.6 0-6.5 2.9-6.5 6.5v14.4c0 3.6 2.9 6.5 6.5 6.5h19.2v19.2c0 3.6 2.9 6.5 6.5 6.5h14.4c3.6 0 6.5-2.9 6.5-6.5v-19.2H291c3.6 0 6.5-2.9 6.5-6.5v-14.4c.1-3.5-2.9-6.5-6.5-6.5zm-3.7 17.3h-20.6c-2.8 0-5.1 2.3-5.1 5.1v20.6h-6.9v-20.6c0-2.8-2.3-5.1-5.1-5.1H229v-6.9h20.6c2.8 0 5.1-2.3 5.1-5.1v-20.6h6.9v20.6c0 2.8 2.3 5.1 5.1 5.1h20.6v6.9z" stroke="#000" stroke-width="2" stroke-miterlimit="10" /></symbol><symbol viewBox="0 0 26 26" id="metro"><circle cx="13" cy="13.1" r="10.6" fill="none" stroke="#ff9f10" stroke-width="3" stroke-miterlimit="10" /><path d="M8.1 18.2l.6-10.4h1.9l2.3 7h.1l2.3-7h1.9l.6 10.4h-1.7l-.4-7h-.1L13.7 17h-1.6l-1.9-5.8h-.1l-.4 7H8.1z" fill="#ff9f10" /></symbol><symbol viewBox="0 0 481 481" id="money-bag"><style>#money-bag .st0{stroke:#000;stroke-width:18;stroke-miterlimit:10}</style><path class="st0" d="M253.6 290h-22.2c-8.1 0-14.6-6.5-14.6-14.6s6.5-14.6 14.6-14.6h39c5.3 0 9.7-4.4 9.7-9.7 0-5.3-4.4-9.7-9.7-9.7h-18.3V228c0-5.3-4.4-9.7-9.7-9.7-5.3 0-9.7 4.4-9.7 9.7v13.5h-1.4c-18.7 0-33.9 15.2-33.9 33.9s15.2 33.9 33.9 33.9h22.2c8.1 0 14.6 6.5 14.6 14.6s-6.5 14.6-14.6 14.6h-39.7c-5.3 0-9.7 4.4-9.7 9.7 0 5.3 4.4 9.7 9.7 9.7h19v13.8c0 5.3 4.4 9.7 9.7 9.7 5.3 0 9.7-4.4 9.7-9.7v-13.8h1.8c18.5-.2 33.4-15.4 33.4-33.9.1-18.8-15.1-34-33.8-34z" /><path class="st0" d="M387.8 268.1c-10.2-23.4-24.2-46-41.9-67.2-21.4-25.8-42.8-43-53.7-51l41.1-76.2c2-3.8 1.4-8.5-1.8-11.4-10.6-10.4-21.9-15.5-34.5-15.5-11.5 0-22.1 4.4-31.3 8.2-7.3 3-14.1 5.9-19.7 5.9-1.7 0-3.1-.2-4.6-.8-19.2-7-33.9-11.4-48.2-11.4-18.1 0-33.4 7.3-48.5 22.7-3.1 3.2-3.6 8.3-1.1 12.1l44.3 67c-11 8.1-31.9 25.2-52.9 50.4-17.6 21.2-31.8 43.8-41.9 67.2C80.4 297.5 74 328.2 74 359.3c0 41.3 33.7 75 75 75h183c41.3 0 75-33.7 75-75 0-31.1-6.4-61.8-19.2-91.2zM164.3 79.4c9.3-8.1 18.3-11.6 29-11.6 11.4 0 24.3 3.9 41.5 10.2 3.5 1.3 7.3 1.9 11.2 1.9 9.4 0 18.5-3.7 27.1-7.3 8.3-3.5 16.2-6.8 23.9-6.8 3.7 0 8.9.6 15.6 5.3L273.9 143h-67.4l-42.2-63.6zM332 415H149c-30.7 0-55.7-25-55.7-55.7 0-51.7 18.9-100.7 56.2-145.6 23.5-28.4 47.5-46.1 54.7-51.3h72.4c7.3 5.1 31.2 22.8 54.7 51.3 37.3 45 56.2 93.9 56.2 145.6.2 30.7-24.8 55.7-55.5 55.7z" /></symbol><symbol viewBox="0 0 77.1 64.8" id="near-center"><style>#near-center .st0{fill:none;stroke:#ff9f10;stroke-width:4;stroke-miterlimit:10}</style><path class="st0" d="M30.8 34.2L19.7 48.5l-7.5-3.1L27.3 26m26.2 28.8l-7-3 11.5-15 7 3-11.5 15zm-5.6-25.5c.5.1.9.1 1.2.2H58l14.8 6.3c.4.2.7.5.8.9.1.4 0 .8-.2 1.2L55.1 61.4c-.3.3-.7.5-1.1.5-.2 0-.4 0-.5-.1L39 55.6H19.3h-.1-.1L4.3 49.1c-.4-.2-.7-.5-.8-.9-.1-.4 0-.8.2-1.2l18.2-23.4c.4-.5 1-.7 1.6-.4l3.1 1.3c.1 0 .2.1.3.1m29.2 5.3l-15.2 20-14.1-.3 7.6-10M38.4 12.2c-3 0-5.5 2.5-5.5 5.5s2.5 5.5 5.5 5.5 5.5-2.5 5.5-5.5-2.5-5.5-5.5-5.5z" /><path class="st0" d="M37.6 44.2c-3.5-4.1-12.4-17-12.4-27.1 0-7.8 5.1-12.7 13-12.7C44.1 4.4 51 7.7 51 17.1c0 9.1-8 21-13.4 27.1z" /></symbol><symbol class="js-house" viewBox="0 0 1920 830" preserveAspectRatio="xMidYMid slice" id="newproj-house"><path d="M733 637.5H499.5V291.3H733v346.2zm-232.5-1H732V292.3H500.5v344.2zM1213.5 637.5h-242V291.3h242v346.2zm-241-1h240V292.3h-240v344.2zM1462.8 637.5h-245.3V291.3h245.3v346.2zm-244.3-1h243.3V292.3h-243.3v344.2zM862.5 673.8h-126v-.5c-.3-11.7-.2-165.1-.2-288.3v-93.8h233.5v337.9H862.5v44.7zm-125-1h124v-44.7h107.3V292.3H737.3v92.8c0 121.7-.1 272.8.2 287.7z" /><path fill="#F0CD4F" d="M701.7 304c-9.7 0-17.5 7.8-17.5 17.5S692 339 701.7 339s17.5-7.8 17.5-17.5-7.9-17.5-17.5-17.5zm3.7 26.1H702V317l-4 1.3v-2.8l7.1-2.5h.4v17.1z" /><path fill="#FFF" d="M698 315.5v2.8l4-1.3v13.1h3.4V313h-.4z" /><path fill="#F0CD4F" d="M937.6 304c-9.7 0-17.5 7.8-17.5 17.5s7.8 17.5 17.5 17.5 17.5-7.8 17.5-17.5-7.9-17.5-17.5-17.5zm6 26.2h-11.7v-2.3l5.5-5.9c.8-.8 1.3-1.6 1.7-2.2s.5-1.2.5-1.8c0-.8-.2-1.4-.6-1.8s-.9-.7-1.6-.7c-.8 0-1.4.3-1.8.8s-.7 1.2-.7 2.1h-3.4c0-1 .2-2 .7-2.8s1.2-1.5 2.1-2 1.9-.7 3.1-.7c1.8 0 3.1.4 4.1 1.3s1.5 2 1.5 3.6c0 .8-.2 1.7-.7 2.6s-1.2 1.9-2.3 3.1l-3.9 4.1h7.3v2.6z" /><path fill="#FFF" d="M940.1 323.3c1.1-1.2 1.8-2.2 2.3-3.1s.7-1.7.7-2.6c0-1.5-.5-2.7-1.5-3.6s-2.3-1.3-4.1-1.3c-1.1 0-2.2.2-3.1.7s-1.6 1.2-2.1 2-.7 1.8-.7 2.8h3.4c0-.9.2-1.6.7-2.1s1-.8 1.8-.8c.7 0 1.3.2 1.6.7s.6 1 .6 1.8c0 .6-.2 1.1-.5 1.8s-.9 1.3-1.7 2.2l-5.5 5.9v2.3h11.7v-2.7h-7.3l3.7-4z" /><path fill="#F0CD4F" d="M1179.5 307.7c-9.7 0-17.5 7.8-17.5 17.5s7.8 17.5 17.5 17.5 17.5-7.8 17.5-17.5-7.8-17.5-17.5-17.5zm4.3 24.9c-1.1.9-2.6 1.4-4.4 1.4-1.7 0-3.1-.4-4.2-1.3s-1.6-2.1-1.6-3.6h3.4c0 .6.2 1.2.7 1.6s1.1.6 1.8.6c.8 0 1.4-.2 1.9-.6s.7-1 .7-1.7c0-1.7-.9-2.6-2.8-2.6h-1.8v-2.6h1.8c.9 0 1.5-.2 1.9-.6s.6-1 .6-1.7-.2-1.2-.6-1.6-1-.6-1.7-.6c-.6 0-1.2.2-1.6.5s-.7.8-.7 1.4h-3.4c0-.9.2-1.7.7-2.4s1.2-1.3 2-1.7 1.8-.6 2.9-.6c1.8 0 3.2.4 4.2 1.3s1.5 2.1 1.5 3.6c0 .8-.2 1.5-.7 2.2s-1.1 1.2-1.9 1.5c1 .3 1.7.9 2.2 1.5s.7 1.5.7 2.4c0 1.5-.5 2.7-1.6 3.6z" /><path fill="#FFF" d="M1182.6 325c.8-.4 1.4-.9 1.9-1.5s.7-1.4.7-2.2c0-1.5-.5-2.7-1.5-3.6s-2.4-1.3-4.2-1.3c-1 0-2 .2-2.9.6s-1.5 1-2 1.7-.7 1.5-.7 2.4h3.4c0-.6.2-1 .7-1.4s1-.5 1.6-.5c.7 0 1.3.2 1.7.6s.6.9.6 1.6c0 .7-.2 1.3-.6 1.7s-1.1.6-1.9.6h-1.8v2.6h1.8c1.9 0 2.8.9 2.8 2.6 0 .7-.2 1.3-.7 1.7s-1.1.6-1.9.6c-.7 0-1.3-.2-1.8-.6s-.7-.9-.7-1.6h-3.4c0 1.5.5 2.7 1.6 3.6s2.5 1.3 4.2 1.3c1.8 0 3.3-.5 4.4-1.4s1.7-2.1 1.7-3.6c0-.9-.2-1.8-.7-2.4s-1.4-1.2-2.3-1.5z" /><path fill="#F0CD4F" d="M1422.7 310.2c-9.7 0-17.5 7.8-17.5 17.5s7.8 17.5 17.5 17.5 17.5-7.8 17.5-17.5-7.9-17.5-17.5-17.5zm6.2 22.3h-1.9v3.7h-3.4v-3.7h-7l-.2-2.1 7.1-11.2h3.4v10.6h1.9v2.7z" /><path fill="#F0CD4F" d="M1419.8 329.8h3.8v-6l-.2.4z" /><path fill="#FFF" d="M1427 319.2h-3.4l-7.1 11.2.2 2.1h7v3.7h3.4v-3.7h1.9v-2.7h-1.9v-10.6zm-3.4 10.6h-3.8l3.6-5.6.2-.4v6z" /></symbol><symbol viewBox="0 0 823 548" id="newproj-popup"><path fill="none" stroke="#000" stroke-miterlimit="10" d="M51.2 190h170.2v249.7H51.2zM399.7 190h167.2v249.7H399.7zM570.5 190h176.7l1 249.7H571.5zM224.5 190h171v246.3h-85.8V469h-85.1c-.2-11-.1-196.9-.1-279z" /><path fill="#333" d="M151.6 353.3h-19.4v-74.7l-23.2 7.2V270l40.6-14.4h2.1l-.1 97.7zM684 316.5h11v15.6h-11v21.1h-19.4v-21.1h-40l-.9-12.2 40.7-64.4H684v61zm-41 0h21.7V282l-1.2 2.2-20.5 32.3zM344.3 353.9h-67v-13.2l31.6-33.7c4.3-4.8 7.6-8.9 9.6-12.4 2.1-3.6 3.1-6.9 3.1-10.1 0-4.3-1-7.7-3.3-10.3-2.2-2.4-5.3-3.8-9.5-3.8-4.5 0-7.9 1.5-10.3 4.5-2.6 3.1-3.8 7-3.8 11.9h-19.4c0-6 1.4-11.3 4.3-16.3s6.9-8.8 12-11.5c5.2-2.7 11-4.1 17.7-4.1 10.1 0 17.9 2.4 23.5 7.2 5.7 4.8 8.4 11.7 8.4 20.4 0 4.8-1.2 9.8-3.8 14.8-2.6 5-6.9 10.8-12.9 17.5l-22.2 23.4h42.1V354h-.1zM471.4 295.8h10.3c5 0 8.6-1.2 11-3.6 2.4-2.4 3.6-5.7 3.6-9.8 0-4-1.2-7-3.6-9.3-2.4-2.2-5.5-3.3-9.6-3.3-3.8 0-6.9 1-9.3 3.1-2.6 2.1-3.8 4.6-3.8 7.9h-19.4c0-5.2 1.4-9.6 4.1-13.7 2.7-4.1 6.5-7.2 11.5-9.5 5-2.2 10.3-3.4 16.3-3.4 10.3 0 18.4 2.4 24.2 7.4 5.8 5 8.8 11.7 8.8 20.4 0 4.5-1.4 8.6-4.1 12.4-2.7 3.8-6.4 6.7-10.8 8.6 5.5 1.9 9.6 5 12.4 8.9 2.7 4 4.1 8.6 4.1 13.9 0 8.8-3.1 15.6-9.5 20.8-6.4 5.2-14.8 7.9-25.1 7.9-9.8 0-17.7-2.6-23.9-7.7-6.2-5.2-9.3-12-9.3-20.4h19.4c0 3.6 1.4 6.7 4.1 8.9 2.7 2.4 6.2 3.4 10.1 3.4 4.6 0 8.2-1.2 10.8-3.6 2.6-2.4 4-5.7 4-9.6 0-9.8-5.3-14.6-16.2-14.6h-10.3v-15.1z" /></symbol><symbol viewBox="0 0 384 384" id="pdf"><style>#pdf .st0{fill:#fdcf41}</style><path class="st0" d="M81 224h191V80H0v144h81zm-65-16V96h240v112H16z" /><path d="M64 0v80h16V16h288v256h-96v96H80V224H64v160h224l96-96V0H64zm224 361.4V288h73.4L288 361.4z" fill="#323232" /><path class="st0" d="M90.8 130.9c-.6-2.5-1.7-4.7-3.2-6.6-1.5-1.9-3.4-3.5-5.8-4.7s-5.4-1.8-8.9-1.8H48.8v68.5h13.8V159H70c3.3 0 6.2-.4 8.9-1.3s5-2.1 6.9-3.7c1.9-1.6 3.4-3.8 4.4-6.4s1.6-5.7 1.6-9.2c0-2.6-.3-5.1-1-7.5zm-15.4 15.5c-1.7 1.7-3.9 2.5-6.7 2.5h-6.1V128h5.8c3.5 0 5.9.9 7.4 2.7 1.5 1.8 2.2 4.4 2.2 7.9s-.9 6.1-2.6 7.8zM153.4 137.4c-.6-4.1-1.7-7.6-3.3-10.5-1.6-2.9-3.9-5.2-6.9-6.7-3-1.6-6.8-2.4-11.6-2.4h-22.7v68.5h21.8c4.6 0 8.4-.7 11.4-2.1s5.4-3.5 7.2-6.4c1.8-2.9 3.1-6.6 3.8-11 .7-4.4 1.1-9.7 1.1-15.7 0-5-.3-9.6-.8-13.7zM140 163.3c-.3 3.2-.8 5.7-1.7 7.6-.9 1.9-2 3.3-3.5 4.1s-3.4 1.2-5.9 1.2h-6.1V128h5.8c2.6 0 4.7.5 6.3 1.5 1.6 1 2.8 2.4 3.6 4.4.8 2 1.3 4.4 1.6 7.3.2 3 .4 6.4.4 10.3-.1 4.7-.3 8.6-.5 11.8zM211.2 129.2v-11.3h-38.3v68.5h13.9v-29.8h23v-11.3h-23v-16.1z" /></symbol><symbol viewBox="0 0 470.642 470.642" id="pedestrian-walking"><g fill="#010002"><path d="M223.821 76.022c10.333-.333 19-4.333 26-12s10.333-16.667 10-27c-.333-10.335-4.167-19.168-11.5-26.5-7.333-7.333-16.167-10.833-26.5-10.5s-19 4.333-26 12-10.5 16.667-10.5 27 3.833 19.167 11.5 26.5 16.667 10.833 27 10.5zM350.321 202.522l-55-30-45-72c-8.667-10.667-19.333-16-32-16-8.667 0-17 3.667-25 11l-68 69c-2 2.667-3.333 5.667-4 9l-9 77v2c0 4.666 1.667 8.666 5 12 3.333 3.332 7.333 5 12 5s8.5-1.668 11.5-5c3-3.334 4.833-7 5.5-11l7-66 24-24-22 184-39 87.001c-1.333 4-2 7.658-2 11.002 0 7.322 2.5 13.5 7.5 18.5s11.167 7.164 18.5 6.5c10 0 17.333-4.678 22-14l42-94.002c0-.67.333-1.835 1-3.5a59.614 59.614 0 012-4.5c.667-1.335 1-2.67 1-4l5-45.001 43 148.003c4.667 12 13 17.666 25 17 6.667 0 12.5-2.5 17.5-7.5s7.5-11.178 7.5-18.5c0-.678-.167-1.5-.5-2.5s-.5-1.836-.5-2.502l-60-205.001 7-67 17 27c1.333 2 3 3.667 5 5l59 33c4 1.333 6.667 2 8 2 4.667 0 8.667-1.833 12-5.5 3.333-3.668 5-7.834 5-12.5 0-6-2.667-10.667-8-14z" /></g></symbol><symbol viewBox="0 0 473.806 473.806" id="phone-call"><path d="M374.456 293.506c-9.7-10.1-21.4-15.5-33.8-15.5-12.3 0-24.1 5.3-34.2 15.4l-31.6 31.5c-2.6-1.4-5.2-2.7-7.7-4-3.6-1.8-7-3.5-9.9-5.3-29.6-18.8-56.5-43.3-82.3-75-12.5-15.8-20.9-29.1-27-42.6 8.2-7.5 15.8-15.3 23.2-22.8 2.8-2.8 5.6-5.7 8.4-8.5 21-21 21-48.2 0-69.2l-27.3-27.3c-3.1-3.1-6.3-6.3-9.3-9.5-6-6.2-12.3-12.6-18.8-18.6-9.7-9.6-21.3-14.7-33.5-14.7s-24 5.1-34 14.7l-.2.2-34 34.3c-12.8 12.8-20.1 28.4-21.7 46.5-2.4 29.2 6.2 56.4 12.8 74.2 16.2 43.7 40.4 84.2 76.5 127.6 43.8 52.3 96.5 93.6 156.7 122.7 23 10.9 53.7 23.8 88 26 2.1.1 4.3.2 6.3.2 23.1 0 42.5-8.3 57.7-24.8.1-.2.3-.3.4-.5 5.2-6.3 11.2-12 17.5-18.1 4.3-4.1 8.7-8.4 13-12.9 9.9-10.3 15.1-22.3 15.1-34.6 0-12.4-5.3-24.3-15.4-34.3l-54.9-55.1zm35.8 105.3c-.1 0-.1.1 0 0-3.9 4.2-7.9 8-12.2 12.2-6.5 6.2-13.1 12.7-19.3 20-10.1 10.8-22 15.9-37.6 15.9-1.5 0-3.1 0-4.6-.1-29.7-1.9-57.3-13.5-78-23.4-56.6-27.4-106.3-66.3-147.6-115.6-34.1-41.1-56.9-79.1-72-119.9-9.3-24.9-12.7-44.3-11.2-62.6 1-11.7 5.5-21.4 13.8-29.7l34.1-34.1c4.9-4.6 10.1-7.1 15.2-7.1 6.3 0 11.4 3.8 14.6 7l.3.3c6.1 5.7 11.9 11.6 18 17.9 3.1 3.2 6.3 6.4 9.5 9.7l27.3 27.3c10.6 10.6 10.6 20.4 0 31-2.9 2.9-5.7 5.8-8.6 8.6-8.4 8.6-16.4 16.6-25.1 24.4-.2.2-.4.3-.5.5-8.6 8.6-7 17-5.2 22.7l.3.9c7.1 17.2 17.1 33.4 32.3 52.7l.1.1c27.6 34 56.7 60.5 88.8 80.8 4.1 2.6 8.3 4.7 12.3 6.7 3.6 1.8 7 3.5 9.9 5.3.4.2.8.5 1.2.7 3.4 1.7 6.6 2.5 9.9 2.5 8.3 0 13.5-5.2 15.2-6.9l34.2-34.2c3.4-3.4 8.8-7.5 15.1-7.5 6.2 0 11.3 3.9 14.4 7.3l.2.2 55.1 55.1c10.3 10.2 10.3 20.7.1 31.3zM256.056 112.706c26.2 4.4 50 16.8 69 35.8s31.3 42.8 35.8 69c1.1 6.6 6.8 11.2 13.3 11.2.8 0 1.5-.1 2.3-.2 7.4-1.2 12.3-8.2 11.1-15.6-5.4-31.7-20.4-60.6-43.3-83.5s-51.8-37.9-83.5-43.3c-7.4-1.2-14.3 3.7-15.6 11s3.5 14.4 10.9 15.6zM473.256 209.006c-8.9-52.2-33.5-99.7-71.3-137.5s-85.3-62.4-137.5-71.3c-7.3-1.3-14.2 3.7-15.5 11-1.2 7.4 3.7 14.3 11.1 15.6 46.6 7.9 89.1 30 122.9 63.7 33.8 33.8 55.8 76.3 63.7 122.9 1.1 6.6 6.8 11.2 13.3 11.2.8 0 1.5-.1 2.3-.2 7.3-1.1 12.3-8.1 11-15.4z" /></symbol><symbol viewBox="0 0 92 80" id="planirovka_1"><style>#planirovka_1 .st1{fill:none;stroke:#ff9f10;stroke-width:4;stroke-miterlimit:10}</style><path d="M19.2 17.1h4c2 0 3.5-.9 3.5-2v-1.4c0-1.1-1.5-2-3.5-2h-4c-2 0-3.5.9-3.5 2v1.4c0 1.1 1.6 2 3.5 2z" fill="none" stroke="#ff9f10" stroke-width="3" stroke-miterlimit="10" /><path class="st1" d="M82.8 5H8.2c-.4 0-.8.3-.8.8v65.7c0 .4.3.8.8.8h74.6c.4 0 .8-.3.8-.8V5.8c.1-.5-.3-.8-.8-.8zM35.7 18.3v3.4H8.4V6.8l27.3-.1v11.6zm0-4.2v-1.9 4.2h-.3M10 35.4h11.7v8.2H10v-8.2zm35.6 34.3H10V49.3h14c0 2 .3 6.1 4.1 10.1 2.4 2.5 5.7 3.8 9.7 3.8.4 0 .8-.3.8-.8V49.3h7v20.4zM81.1 42H41.7v-8.7c2.4 0 8.3-.5 12.5-4.3 2.8-2.6 4.2-6.3 4.2-11 0-.5-.4-.9-.9-.9H41.7l-.2-9.4 39.5.1.1 34.2z" /><path class="st1" d="M56.2 48.5H82v23H56.2z" /></symbol><symbol viewBox="0 0 170 132" id="protasov-mini"><style>#protasov-mini .st0{fill:none;stroke:#000;stroke-miterlimit:10}#protasov-mini .st1{fill:#333}</style><path class="st0" d="M.55 28.738h34.695v80.186H.55zM35.337 28.738h34.695v80.186H35.337zM70.124 28.738h34.695v80.186H70.124zM157 108.924h-51.174V28.738h34.696v36.618H157z" /><path class="st1" d="M20.324 78.721h-4.67V60.778l-5.583 1.74v-3.754l9.703-3.478h.458V78.72h.092zM62.251 78.721h-16.02v-3.204l7.598-8.056c1.007-1.098 1.831-2.105 2.289-3.02.457-.916.732-1.649.732-2.381 0-1.007-.275-1.83-.824-2.472s-1.282-.915-2.288-.915c-1.007 0-1.923.366-2.472 1.098s-.916 1.648-.916 2.838h-4.668c0-1.464.366-2.746 1.007-3.936.64-1.19 1.647-2.106 2.929-2.747a9.22 9.22 0 014.211-1.006c2.38 0 4.303.549 5.584 1.739 1.282 1.19 2.014 2.838 2.014 4.943 0 1.19-.274 2.38-.915 3.57s-1.648 2.564-3.113 4.212l-5.31 5.584h10.07v3.753h.092zM84.863 64.99h2.471c1.19 0 2.014-.275 2.655-.916.641-.64.824-1.373.824-2.38 0-.916-.274-1.648-.824-2.197-.549-.55-1.373-.824-2.288-.824-.916 0-1.648.274-2.197.732-.55.458-.916 1.099-.916 1.923H79.92c0-1.19.366-2.289 1.007-3.296.641-1.007 1.557-1.74 2.747-2.289 1.19-.549 2.471-.823 3.936-.823 2.472 0 4.394.549 5.859 1.739 1.465 1.19 2.105 2.838 2.105 4.943a4.73 4.73 0 01-1.007 2.93c-.64.824-1.556 1.556-2.563 2.105 1.282.458 2.289 1.19 2.93 2.106.64.915 1.007 2.105 1.007 3.387 0 2.105-.733 3.753-2.289 5.035s-3.57 1.922-6.042 1.922c-2.38 0-4.211-.64-5.767-1.83s-2.197-2.838-2.197-4.852h4.668c0 .915.367 1.556 1.007 2.197.641.64 1.465.824 2.472.824 1.099 0 2.014-.275 2.563-.916.55-.64.916-1.373.916-2.289 0-2.38-1.282-3.478-3.845-3.478h-2.472v-3.754h-.091zM128.987 69.933h2.655v3.753h-2.655v5.035h-4.668v-5.035h-9.613l-.183-2.93 9.796-15.47h4.668v14.647zm-9.887 0h5.219v-8.24l-.275.55-4.944 7.69z" /></symbol><symbol viewBox="0 0 1920 954" id="protasov-svg"><style>#protasov-svg .st1{fill:none;stroke:#000;stroke-miterlimit:10}#protasov-svg .st2{fill:#fdcf41}#protasov-svg .st3{fill:#fff}</style><g id="protasov-svg_Layer_2"><path class="st1" d="M305.1 190.6v543.5h15.3v33h49.2V862h274.5V717.6h-28.9V194.1c-103.3-3.5-206.7 0-310.1-3.5z" /><path class="st1" d="M899.1 866.1v-675H621.6v517.5h28.7v153.5c82.9 1.3 165.9 2.7 248.8 4zM1182.6 861.6v-648-12l-277.5-6v670.5l277.5-4.5zM1571.1 867.6l4.5-340.5h-97.9c2.1-98.5 4.3-197 6.4-295.5-36.7-4.4-140.3-1.1-140.3-1.1s-1-11.2-1.3-18.5c-48-.5-104.3.6-152.3.1v654l380.9 1.5z" /></g><circle class="st2" cx="569" cy="268.7" r="17.5" /><path class="st3" d="M571.5 275.7h-3.4v-13.1l-4 1.3v-2.8l7.1-2.5h.4l-.1 17.1z" /><circle class="st2" cx="869.5" cy="267.2" r="17.5" /><path class="st3" d="M875.4 274.2h-11.7v-2.3l5.5-5.9c.8-.8 1.3-1.6 1.7-2.2.4-.6.5-1.2.5-1.8 0-.8-.2-1.4-.6-1.8-.4-.4-.9-.7-1.6-.7-.8 0-1.4.3-1.8.8s-.7 1.2-.7 2.1h-3.4c0-1 .2-2 .7-2.8s1.2-1.5 2.1-2 1.9-.7 3.1-.7c1.8 0 3.1.4 4.1 1.3 1 .9 1.5 2 1.5 3.6 0 .8-.2 1.7-.7 2.6-.5.9-1.2 1.9-2.3 3.1l-3.9 4.1h7.3v2.6h.2z" /><circle class="st2" cx="1144.9" cy="267.2" r="17.5" /><path class="st3" d="M1142.4 264.2h1.8c.9 0 1.5-.2 1.9-.6.4-.4.6-1 .6-1.7s-.2-1.2-.6-1.6c-.4-.4-1-.6-1.7-.6-.6 0-1.2.2-1.6.5s-.7.8-.7 1.4h-3.4c0-.9.2-1.7.7-2.4.5-.7 1.2-1.3 2-1.7s1.8-.6 2.9-.6c1.8 0 3.2.4 4.2 1.3s1.5 2.1 1.5 3.6c0 .8-.2 1.5-.7 2.2s-1.1 1.2-1.9 1.5c1 .3 1.7.9 2.2 1.5.5.6.7 1.5.7 2.4 0 1.5-.6 2.7-1.7 3.6-1.1.9-2.6 1.4-4.4 1.4-1.7 0-3.1-.4-4.2-1.3s-1.6-2.1-1.6-3.6h3.4c0 .6.2 1.2.7 1.6.5.4 1.1.6 1.8.6.8 0 1.4-.2 1.9-.6.5-.4.7-1 .7-1.7 0-1.7-.9-2.6-2.8-2.6h-1.8l.1-2.6z" /><circle class="st2" cx="1448.7" cy="268.7" r="17.5" /><path class="st3" d="M1452.7 269.3h1.9v2.7h-1.9v3.7h-3.4V272h-7l-.2-2.1 7.1-11.2h3.4l.1 10.6zm-7.1 0h3.8v-6l-.2.4-3.6 5.6z" /></symbol><symbol viewBox="0 0 53.9 51.7" id="protected"><style>#protected .st0,#protected .st1{fill:none;stroke:#ff9f10;stroke-width:3;stroke-miterlimit:10}#protected .st1{stroke-width:4}</style><path class="st0" d="M16.7 19.3c0 1-.8 1.9-1.9 1.9s-1.8-.9-1.8-1.9.8-1.9 1.9-1.9 1.8.9 1.8 1.9" /><path class="st1" d="M15.7 30.5h26.9c4.1-.7 6.7-6.2 6.7-13.1 0-6.8-2.6-12.4-6.7-13.1H6.3c-2 0-2.6 2.7-.8 3.5.3.2.8.5 1.4.9 1 .6 2 1.2 3 1.9.1 0 .1.1.2.1 2.5 1.7 4.1 4.2 5.6 4.9h8.2l1.4 2.7c.3.6 1 1 1.7 1h20.6m-38-8.2c-1.1 2.2-1.4 4.3-1.4 7.2 0 6.6 3 12.2 7.5 12.2.5 0 1-.1 1.6-.3h.1l1.2-.6.2-.2c.3-.2.5-.4.8-.7 2.2-2.2 3.5-6.1 3.5-10.4 0-1-.1-1.9-.2-2.8M38.2 30.5V41.7c0 3.1-2.5 5.6-5.6 5.6S27 44.8 27 41.7V30.5" /><path class="st0" d="M38.2 36.1h5.6c1 0 1.9.8 1.9 1.9 0 1-.8 1.9-1.9 1.9h-5.6v-3.8z" /></symbol><symbol viewBox="0 0 31.49 31.49" id="right-arrow"><path d="M21.205 5.007a1.112 1.112 0 00-1.587 0 1.12 1.12 0 000 1.571l8.047 8.047H1.111A1.106 1.106 0 000 15.737c0 .619.492 1.127 1.111 1.127h26.554l-8.047 8.032c-.429.444-.429 1.159 0 1.587a1.112 1.112 0 001.587 0l9.952-9.952a1.093 1.093 0 000-1.571l-9.952-9.953z" fill="#1e201d" /></symbol><symbol viewBox="0 0 70.6 64" id="school"><path d="M60.2 13.3c-2.6-.1-2.7-7.5 0-7.2 1 0 1.8-.3 1.8-1.2s-.8-1.2-1.8-1.2h-42c-2.9 0-5.3 5.1-5.3 7.9v45.3c0 1.9 1.6 3.4 3.5 3.4h42c1.9 0 3.5-1.5 3.5-3.4v-42c0-.9-.8-1.5-1.7-1.6zm-1.8 43.6h-42V16.3c.6.2 1.1.3 1.8.3H27v-2.4h-8.8c-4.4-.1-3.9-9.3 0-9.2h35.4c.4 0 5.8-.2 5.6.2-3.5 1.5-3.4 8 .3 9 .2.3-5.3.2-5.6.2h-18v2.4h22.5v40.1z" fill="#ff9f10" stroke="#ff9f10" stroke-width="4" stroke-miterlimit="10" /><path d="M34.8 11.5v15.4l-3.5-3.4-3.5 3.4V11.5h7m3.5-3.4H24.4V35l7-6.7 7 6.7V8.1h-.1z" fill="#ff9f10" stroke="#ff9f10" stroke-width="3" stroke-miterlimit="10" /></symbol><symbol viewBox="0 0 306 306" id="slider-arrow"><path d="M94.35 0l-35.7 35.7L175.95 153 58.65 270.3l35.7 35.7 153-153z" /></symbol><symbol viewBox="0 0 512 512" id="store"><path d="M0 208c0 29.781 20.438 54.594 48 61.75V480H16c-8.813 0-16 7.156-16 16s7.188 16 16 16h480c8.875 0 16-7.156 16-16s-7.125-16-16-16h-32V269.75c27.562-7.156 48-31.969 48-61.75v-16H0v16zm320 64c35.375 0 64-28.656 64-64 0 29.781 20.438 54.594 48 61.75V480H192V272c35.375 0 64-28.656 64-64 0 35.344 28.688 64 64 64zm-144-2.25V480H80V269.75c27.563-7.156 48-31.969 48-61.75 0 29.781 20.438 54.594 48 61.75zM448 48H64L0 176h512L448 48zM135.188 83.563l-32 64c-1.438 2.813-4.25 4.438-7.188 4.438a7.744 7.744 0 01-3.563-.844c-3.938-1.969-5.563-6.781-3.563-10.719l32-64c2-3.938 6.781-5.531 10.719-3.594 3.97 1.969 5.532 6.781 3.595 10.719zm64 0l-32 64c-1.438 2.813-4.25 4.438-7.188 4.438a7.744 7.744 0 01-3.563-.844c-3.938-1.969-5.563-6.781-3.563-10.719l32-64c2-3.938 6.813-5.531 10.719-3.594 3.97 1.969 5.532 6.781 3.595 10.719zM264 144c0 4.438-3.562 8-8 8-4.406 0-8-3.563-8-8V80c0-4.438 3.594-8 8-8 4.438 0 8 3.563 8 8v64zm91.875 7c-1.25.688-2.562 1-3.875 1-2.812 0-5.562-1.5-7-4.156l-35-64c-2.125-3.875-.688-8.75 3.188-10.844 3.813-2.125 8.75-.75 10.875 3.156l35 64c2.062 3.875.687 8.75-3.188 10.844zm63.687.156c-1.124.594-2.312.844-3.562.844a7.909 7.909 0 01-7.125-4.438l-32-64c-2-3.938-.375-8.75 3.562-10.719 3.875-1.969 8.75-.375 10.75 3.594l32 64c1.938 3.938.375 8.751-3.625 10.719zM136 386.438v-36.875c-4.688-2.812-8-7.688-8-13.562 0-8.844 7.188-16 16-16 8.875 0 16 7.156 16 16 0 5.875-3.281 10.75-8 13.562v36.875c4.719 2.813 8 7.688 8 13.563 0 8.844-7.125 16-16 16-8.813 0-16-7.156-16-16 0-5.876 3.313-10.751 8-13.563zM64 16c0-8.844 7.188-16 16-16h352c8.875 0 16 7.156 16 16s-7.125 16-16 16H80c-8.812 0-16-7.156-16-16zm216.438 341.656l-11.312-11.313 45.25-45.25 11.312 11.313-45.25 45.25zm0 45.25l-11.312-11.313 90.5-90.5 11.312 11.313-90.5 90.5zm79.187-56.562l11.312 11.313-45.25 45.25-11.312-11.313 45.25-45.25z" /></symbol><symbol viewBox="0 0 80.7 69.3" id="transportnaya_dostupnost"><style>#transportnaya_dostupnost .st0{fill:none;stroke:#ff9f10;stroke-width:3;stroke-miterlimit:10}</style><path class="st0" d="M12.5 23.7c-1.9 1.9-.2 4 2.2 4h26.7c4.7 0 8.6 3.3 8.6 7.4 0 4-3.9 7.4-8.6 7.4H17.2c-7.2 0-13 5-13 11.1s5.8 11.1 13 11.1h47.5c1.3 0 2.4-.9 2.4-2.1 0-1-1.1-2-2.4-2H17.2c-4.5 0-8.1-3.1-8.1-7s3.6-7 8.1-7h24.2c7.4 0 13.5-5.2 13.5-11.5s-6.1-11.5-13.5-11.5H15.6" /><path class="st0" d="M67.3 62.9c-2-2.3-6.9-9.5-6.9-15.1 0-4.3 2.8-7.1 7.2-7.1 3.2 0 7.1 1.9 7.1 7.1 0 5.1-4.5 11.7-7.4 15.1zm.2-17.6c-1.4 0-2.5 1.1-2.5 2.5s1.1 2.5 2.5 2.5 2.5-1.1 2.5-2.5-1.1-2.5-2.5-2.5zM13.8 25.6c-2-2.3-6.9-9.5-6.9-15.1 0-4.3 2.8-7.1 7.2-7.1 3.2 0 7.1 1.9 7.1 7.1.1 5.1-4.4 11.7-7.4 15.1zM14.1 8c-1.4 0-2.5 1.1-2.5 2.5s1.1 2.5 2.5 2.5 2.5-1.1 2.5-2.5S15.5 8 14.1 8z" /></symbol><symbol viewBox="0 0 100 100" id="twitter"><path data-name="Forma 1" d="M97.242 10.531a40.757 40.757 0 01-13.036 5.087A20.256 20.256 0 0069.235 9a20.742 20.742 0 00-20.518 20.953 21.557 21.557 0 00.532 4.774 57.852 57.852 0 01-42.284-21.9 21.287 21.287 0 006.35 27.977 20.18 20.18 0 01-9.291-2.632v.263A20.878 20.878 0 0020.476 58.99a20.06 20.06 0 01-9.267.355A20.612 20.612 0 0030.369 73.9a40.622 40.622 0 01-25.475 8.969A42.632 42.632 0 010 82.583 57.211 57.211 0 0031.447 92c37.734 0 58.368-31.936 58.368-59.631l-.067-2.716A41.777 41.777 0 00100 18.817a40.335 40.335 0 01-11.779 3.3 21.01 21.01 0 009.021-11.586z" fill-rule="evenodd" /></symbol><symbol viewBox="0 0 77.4 64.8" id="undergound-parking"><style>#undergound-parking .st0{fill:none;stroke:#ff9f10;stroke-width:2;stroke-linecap:round;stroke-linejoin:round;stroke-miterlimit:10}</style><path class="st0" d="M33 52h11.9l.8.4c-.3 1.4-.5 1.6-.6 1.6-.5.2-5.7 1-6.2 1s-5.7-.8-6.2-1c0 0-.3-.2-.6-1.6l.9-.4zM50.8 54.9c-.2.1-.8.3-1.7.5-.2.1-.4.1-.5.1-.5 0-.8-.2-.9-.4l1.8-2.1 1.8-1-.5 2.9z" /><path class="st0" d="M54.3 40.5c-.7-.4-1.4-.4-1.9-.2-.4.2-.7.5-.8.8-1.2-3-3.2-7.4-5.2-7.5-2.8-.2-7.5-.2-7.6-.2 0 0-4.8 0-7.6.2-2 .2-4 4.5-5.2 7.5-.2-.3-.4-.6-.8-.8-.5-.3-1.2-.2-1.9.2-1 .5-1.4 1-1.3 1.5.2 1 2.4 1.5 3.2 1.6 0 .1-.1.2-.1.3-1.6 4.5-1.5 8.2-1 10.5v4.7c0 .5.4 1.4 1.3 1.4H27.7s.8-.2.9-1c.1-.5.1-1.3 0-1.7H49c0 .4-.1 1.3 0 1.7.2.8.9 1 .9 1H52.2c.9 0 1.3-.9 1.3-1.4v-4.6c.5-2.4.6-6-1-10.5 0-.1-.1-.2-.1-.3.8-.1 3-.6 3.2-1.6.2-.6-.3-1.1-1.3-1.6zm-4.5 8.3c-.7 0-1.3-.6-1.3-1.3 0-.7.6-1.3 1.3-1.3.7 0 1.3.6 1.3 1.3 0 .7-.6 1.3-1.3 1.3zm-3.9-.8l-.2.4H32.1l-.2-.4.3-1.4h13.4l.3 1.4zm-19.3-.5c0-.7.6-1.3 1.3-1.3.7 0 1.3.6 1.3 1.3 0 .7-.6 1.3-1.3 1.3-.7 0-1.3-.6-1.3-1.3z" /><path class="st0" d="M29.4 41.9l1 .2H47.8l1-.2c.1 0 .1-.1.2-.1v-.2c-.7-2-2.3-4.6-2.6-5-.1-.1-.3-.4-7.1-.4h-.1c-6.8 0-7 .3-7.1.4-.3.4-1.9 3-2.6 5v.2c-.3 0-.2.1-.1.1zM29.1 55.5c-.2 0-.3 0-.5-.1-.9-.3-1.5-.5-1.7-.5l-.5-2.9 1.8 1 1.8 2.1c-.1.1-.4.4-.9.4z" /><path d="M71.4 22.9L40.9 5.1c-1.5-1.1-3-1-4.4 0L6 22.9c-2 2-.6 4.4 2.2 4.4h1.4v32.2c0 .6.4 1 1 1h6.3c.6 0 1-.4 1-1V27.3h41.6v32.2c0 .6.4 1 1 1h6.3c.6 0 1-.4 1-1V27.3h1.4c2.8 0 4.2-2.5 2.2-4.4z" fill="none" stroke="#ff9f10" stroke-width="4" stroke-linecap="round" stroke-linejoin="round" stroke-miterlimit="10" /></symbol><symbol viewBox="0 0 79.5 93.5" id="zaschita"><style>#zaschita .st0{fill:none;stroke:#ff9f10;stroke-width:5;stroke-miterlimit:10}</style><path class="st0" d="M39.6 88.5c.5.2 1 .2 1.4 0 35.3-12.2 34.8-41.4 34.4-62.7 0-2.3-.1-4.5-.1-6.6 0-1.2-1-2.2-2.2-2.2-13.1 0-23-3.8-31.3-11.8-.8-.8-2.2-.8-3 0C30.5 13.2 20.5 17 7.4 17c-1.2 0-2.2 1-2.2 2.2 0 2.1 0 4.3-.1 6.6-.3 21.3-.9 50.4 34.5 62.7z" /><path class="st0" d="M17.9 31.5c0-1.1 0-2.3.1-3.3 9.1-.3 16.2-3 22.3-8.5 6.1 5.5 13.2 8.2 22.3 8.5 0 1.1 0 2.2.1 3.3.3 15.2.6 34.1-22.4 42.4-23-8.2-22.7-27.1-22.4-42.4z" /><path d="M36.8 43.2c-2.6-2-3.2-5.9-1.2-8.5 2-2.6 5.7-3 8.3-1 2.6 2 3 5.7 1 8.3-.3.4-.6.7-1 1-1.1.9-1.6 2.4-1.1 3.8l4.5 12.7c-4.6 1.5-9.6 1.5-14.2 0l4.5-12.7c.5-1.4 0-2.9-1.1-3.8l.3.2z" fill="none" stroke="#ff9f10" stroke-width="4" stroke-miterlimit="10" /></symbol></defs></svg>